<svg xmlns="http://www.w3.org/2000/svg" version="1.1" x="0px" y="0px" width="198.425px" height="198.425px" viewBox="0 0 198.425 198.425" xml:space="preserve"><style>.s0 {fill:white;}</style><g><path d="M148.062 49.595c0 0-13.217-11.302-50.643-11.302 -37.169 0-53.167 13.389-53.167 13.389s18.414-14.898 53.167-14.898C132.171 36.784 148.062 49.595 148.062 49.595z" class="s0"/><path d="M178.617 89.003c0 0-23.809-20.818-80.951-20.818 -56.965 0-79.455 20.818-79.455 20.818s23.664-22.05 79.208-22.05C152.96 66.953 178.617 89.003 178.617 89.003z" class="s0"/><path d="M46.767 150.222c0 0 12.65 11.303 50.652 11.303 36.998 0 53.162-13.39 53.162-13.39s-18.405 14.917-53.162 14.917C62.666 163.052 46.767 150.222 46.767 150.222z" class="s0"/><path d="M18.214 110.809c0 0 21.947 20.824 79.205 20.824 59.008 0 81.204-20.824 81.204-20.824s-24.971 22.056-80.517 22.056C42.563 132.865 18.214 110.809 18.214 110.809z" class="s0"/><path d="M39.838 56.377c0 0-11.98 12.566-11.98 44.652 0 32.657 14.191 44.3 14.191 44.3s-15.803-14.064-15.803-43.844C26.247 71.71 39.838 56.377 39.838 56.377z" class="s0"/><path d="M83.013 25.973c0 0-27.39 21.515-27.39 74.273 0 50.633 27.39 70.519 27.39 70.519s-28.773-21.361-28.773-71.5C54.24 49.133 83.013 25.973 83.013 25.973z" class="s0"/><path d="M155.468 143.055c0 0 11.497-12.606 11.497-44.654 0-31.449-13.62-44.299-13.62-44.299s15.166 14.064 15.166 43.843C168.511 127.722 155.468 143.055 155.468 143.055z" class="s0"/><path d="M112.777 170.762c0 0 27.461-22.627 27.461-71.119 0-53.467-27.461-73.676-27.461-73.676s28.781 21.362 28.781 71.5C141.558 147.603 112.777 170.762 112.777 170.762z" class="s0"/><path d="M6.997 100.247c0 0 81.322 0.5 90.511 0.5 9.188 0 91.707-0.5 91.707-0.5s-82.303-0.5-91.707-0.5C88.103 99.747 6.997 100.247 6.997 100.247z" class="s0"/><path d="M98.105 191.355c0 0 0.5-81.322 0.5-90.51s-0.5-91.708-0.5-91.708 -0.5 82.303-0.5 91.708S98.105 191.355 98.105 191.355z" class="s0"/></g></svg>