<svg id="Component_13_1" data-name="Component 13 – 1" xmlns="http://www.w3.org/2000/svg" width="66.928" height="60.404" viewBox="0 0 66.928 60.404">
  <path id="Path_1" data-name="Path 1" d="M207.9,187.6H187.63v4.614H207.9a2.307,2.307,0,1,0,0-4.614Z" transform="translate(-159.532 -159.702)" fill="#ffffff"/>
  <path id="Path_32" data-name="Path 32" d="M93.232,68.774H81.063V56.693H68.895V68.774H56.726V80.855H68.895A12.125,12.125,0,0,0,81.063,92.935h0V80.855H93.232Z" transform="translate(-56.726 -56.693)" fill="#fb1222"/>
  <path id="Path_33" data-name="Path 33" d="M194.449,113.386H182.28v12.081h12.169a6.04,6.04,0,1,1,0,12.081H170.111v12.081a12.125,12.125,0,0,0,12.169,12.081h0V149.628h12.169a18.122,18.122,0,1,0,0-36.242Z" transform="translate(-145.774 -101.305)" fill="#ffffff"/>
</svg>
