<?xml version="1.0" encoding="UTF-8" standalone="no"?>
<!DOCTYPE svg PUBLIC "-//W3C//DTD SVG 1.1//EN" "http://www.w3.org/Graphics/SVG/1.1/DTD/svg11.dtd">
<svg xmlns="http://www.w3.org/2000/svg" xmlns:xlink="http://www.w3.org/1999/xlink" version="1.1" width="309.3192pt" height="284.8004pt" viewBox="0 0 309.3192 284.8004">
<g enable-background="new">
<g id="Layer-1" data-name="Layer 1">
<g id="Layer-2" data-name="Corel_OTF">
</g>
<g id="Layer-2" data-name="Corel_OTF">
</g>
<g id="Layer-2" data-name="Corel_OTF">
</g>
<g id="Layer-2" data-name="Corel_OTF">
</g>
<g id="Layer-2" data-name="Corel_OTF">
</g>
<g id="Layer-2" data-name="Corel_OTF">
</g>
<symbol id="font_0_2">
<path d="M .22900002 .679 C .24100001 .679 .259 .67800006 .283 .67600008 C .306 .67300006 .324 .67200008 .335 .67200008 C .342 .67200008 .352 .67300006 .366 .674 C .379 .675 .389 .675 .396 .675 C .414 .675 .43 .66 .445 .63100007 C .458 .606 .46400003 .583 .46400003 .563 C .46400003 .54 .455 .517 .437 .49300004 C .43 .48200003 .41300003 .46500004 .388 .44000004 C .37 .42200003 .361 .409 .361 .40100003 C .361 .39600004 .374 .379 .401 .34800003 C .43400003 .31100003 .458 .279 .474 .25300003 C .501 .21100001 .514 .17300001 .514 .13900002 C .514 .09600001 .501 .062000004 .474 .037 C .447 .012 .412 0 .368 0 C .356 0 .33900003 .0010000002 .318 .0030000006 C .293 .0050000005 .276 .0060000007 .269 .007 C .21400002 .010000001 .15400002 .011000001 .08900001 .011000001 C .08100001 .011000001 .069000009 .010000001 .053000004 .007 C .036 .0050000005 .024000003 .004 .016 .004 C .004999999 .004 0 .008 0 .015000001 C 0 .016 .004999999 .024 .016 .039 C .027 .053000004 .033 .063 .035000005 .069000009 C .038000004 .079 .042000005 .15100001 .046000005 .28500004 C .049000004 .402 .051000008 .48100005 .051000008 .52400007 C .051000008 .57500007 .050000006 .60700008 .047000007 .61800006 C .045 .62500008 .039000006 .63500007 .03 .64900007 C .020000002 .66200008 .014999999 .67100009 .014999999 .674 C .014999999 .68200007 .022000002 .68600007 .037 .68600007 C .045 .68600007 .058000007 .684 .075 .68100008 C .09200001 .67800006 .105000007 .67600008 .11400001 .67600008 C .19100002 .67800006 .22900002 .679 .22900002 .679 M .22700002 .62500008 C .18 .62500008 .157 .59000006 .157 .51900008 C .157 .513 .157 .504 .157 .492 C .158 .48000003 .158 .47200004 .158 .46700005 C .158 .43600003 .16000001 .41700004 .165 .409 C .172 .39600004 .19000001 .39000003 .21800001 .39000003 C .253 .39000003 .283 .40000005 .306 .42100004 C .329 .441 .34 .469 .34 .504 C .34 .537 .33 .56600007 .30900003 .59000006 C .288 .61300006 .26 .62500008 .22700002 .62500008 M .21300002 .34100003 C .19200002 .34100003 .178 .33600004 .171 .326 C .164 .316 .16000001 .3 .16000001 .279 C .16000001 .20500002 .163 .156 .16900002 .132 C .18400002 .076000008 .21700001 .048 .269 .048 C .296 .048 .319 .054 .338 .067 C .36 .08100001 .371 .10100001 .371 .126 C .371 .17400001 .357 .22000002 .328 .26500003 C .296 .316 .258 .34100003 .21300002 .34100003 Z "/>
</symbol>
<use xlink:href="#font_0_2" transform="matrix(32.41848,0,0,-39.049,12.517706,43.56865)" fill="#8a0c15"/>
<symbol id="font_0_3">
<path d="M .15400002 .68100008 C .164 .68100008 .17900002 .6790001 .19900002 .6750001 C .21900001 .67100009 .23400003 .6690001 .245 .6690001 C .25700004 .6690001 .27400003 .67200008 .29700003 .67700007 C .32000003 .68200007 .33600004 .6840001 .34700004 .6840001 C .36800004 .6840001 .39000003 .6700001 .41300003 .64300009 C .46700005 .57900008 .49400003 .49500004 .49400003 .391 C .49400003 .23300001 .43100003 .11400001 .305 .031 C .27400003 .01 .252 0 .23700002 0 C .22600001 0 .20800002 .007 .18300002 .022 C .061 .092 0 .20500002 0 .361 C 0 .48200003 .030000002 .57500007 .091000009 .63900008 C .118000019 .66700008 .13900002 .68100008 .15400002 .68100008 M .19800002 .61800006 C .16000001 .61800006 .13200002 .6000001 .11400001 .56500008 C .10000001 .53800007 .09300001 .504 .09300001 .462 C .09300001 .39800004 .112 .33 .149 .257 C .19300002 .172 .24400002 .13000001 .30200003 .13000001 C .337 .13000001 .36300005 .149 .38000003 .187 C .39200003 .21400002 .39800004 .24800001 .39800004 .289 C .39800004 .358 .38200004 .42700003 .35000003 .49400003 C .31000004 .5770001 .259 .61800006 .19800002 .61800006 Z "/>
</symbol>
<symbol id="font_0_4">
<path d="M .28100003 .679 C .377 .679 .425 .63 .425 .531 C .425 .488 .416 .449 .397 .41500003 C .386 .396 .36400003 .374 .333 .35 C .305 .328 .291 .316 .291 .314 C .291 .293 .305 .255 .33200003 .19800002 C .35700003 .14700002 .37800003 .11 .395 .089 C .41000004 .07 .42400003 .057000005 .439 .052000006 C .44200004 .051000004 .44500003 .049000004 .44900004 .045 C .44900004 .031000004 .441 .020000002 .42400003 .012000001 C .41000004 .0050000005 .395 .0010000002 .38000003 .0010000002 C .347 .0010000002 .319 .013 .294 .038000004 C .275 .057000005 .256 .085 .238 .122 C .22500003 .15100001 .21100001 .18100001 .19800002 .21100001 C .19100002 .22600001 .18 .24100001 .16600001 .256 C .15200001 .27 .14400001 .279 .142 .282 L .14600002 .291 C .155 .292 .171 .29500003 .19200002 .30200003 C .19900002 .306 .208 .312 .21800001 .321 C .264 .36 .287 .41500003 .287 .48400004 C .287 .517 .28 .546 .26700003 .57100006 C .25 .60300007 .227 .619 .19800002 .619 C .17400001 .619 .15900001 .602 .15300001 .568 C .143 .513 .13800001 .426 .13800001 .308 C .13800001 .17800002 .15900001 .086 .202 .032 C .208 .025000003 .21100001 .019000002 .21100001 .014 C .21100001 .0040000008 .20400001 0 .19100002 .0010000002 C .132 .008 .085 .012000001 .050000006 .012000001 C .047000007 .012000001 .041 .011000001 .033 .009000001 C .024 .0070000009 .018 .0060000007 .014000002 .0060000007 C .004999999 .0060000007 0 .009000001 0 .016 C 0 .017 .0040000008 .031000004 .012000002 .058000003 C .02 .084 .024 .102000009 .025000003 .112 C .026 .116000007 .027000003 .165 .030000002 .259 C .036 .456 .039000006 .556 .039000006 .56 C .039000006 .577 .035000005 .598 .026 .624 C .017 .65000006 .012000002 .666 .012000002 .67200008 C .012000002 .68200007 .019000002 .68700006 .032 .68700006 C .04 .68700006 .052 .68600007 .069000009 .684 C .085 .681 .096 .68 .103 .679 C .102 .679 .162 .679 .28100003 .679 Z "/>
</symbol>
<symbol id="font_0_5">
<path d="M .30800004 .5310001 C .28500004 .5310001 .25100003 .53900006 .207 .55500009 C .163 .57100006 .13 .57900008 .10700001 .57900008 C .10400001 .57900008 .09600001 .57900008 .083000008 .57800009 C .075 .56700006 .071 .55600008 .071 .5450001 C .071 .5170001 .094000007 .48700003 .14 .455 C .168 .43600003 .214 .411 .277 .379 C .33300004 .351 .36600004 .33200003 .37500004 .323 C .38800005 .30900003 .39500005 .279 .39500005 .23400001 C .39500005 .17 .37500004 .115 .33400003 .069000009 C .293 .023000002 .24100001 0 .177 0 C .138 0 .10400001 .009000001 .07400001 .028 C .038 .049000004 .02 .078 .02 .113000009 C .02 .128 .024 .141 .033 .15300001 C .042 .164 .053 .17 .06700001 .17 C .06700001 .17 .072000008 .169 .08100001 .16800002 C .079 .154 .07800001 .14600002 .07800001 .14600002 C .07800001 .12900001 .087000008 .115 .10400001 .103 C .11900001 .092 .136 .086 .154 .086 C .179 .086 .199 .093 .215 .106000009 C .231 .119 .23900001 .13800001 .23900001 .163 C .23900001 .201 .21800001 .237 .177 .26900003 C .139 .298 .10100001 .32700003 .062000004 .35500003 C .021000002 .39200003 0 .43600003 0 .48600004 C 0 .54300007 .018 .595 .055000005 .64300009 C .076000008 .6700001 .09200001 .6840001 .10300001 .6840001 C .10800001 .6840001 .121000017 .68200007 .14400001 .67700007 C .167 .67300006 .182 .67100009 .19 .6700001 C .223 .66700008 .27100004 .66600009 .33400003 .66600009 C .34300003 .66600009 .35600005 .6690001 .37300004 .6740001 C .39000003 .6790001 .40200005 .68200007 .41100005 .68200007 C .42000003 .68200007 .42400003 .67800006 .42400003 .6690001 C .42400003 .66200008 .41700004 .6460001 .40300004 .62100008 C .38300003 .58500006 .37100003 .56500008 .36800004 .56000009 C .35200004 .54100009 .33200003 .5310001 .30800004 .5310001 Z "/>
</symbol>
<symbol id="font_0_6">
<path d="M .103 .008 C .095 .008 .083000008 .008 .066 .006 C .049000008 .005 .037000006 .005 .029000003 .005 C .016000003 .005 .009 .01 .009 .02 C .009 .019000002 .015000001 .032 .027000003 .060000004 C .038000004 .088 .044000005 .11400001 .044000005 .13700001 C .044000005 .16100002 .043 .19800002 .040000004 .24700001 C .037000006 .296 .036000004 .333 .036000004 .35700003 C .036000004 .411 .046 .44700004 .066 .46600003 C .08600001 .485 .124 .49500004 .18 .49500004 C .192 .49500004 .19800002 .49300004 .19800002 .48800005 C .17300001 .439 .161 .35200004 .161 .22700002 C .161 .113000009 .187 .056 .23900001 .056 C .28400005 .056 .323 .08400001 .35500003 .139 C .38300003 .187 .39700005 .23600002 .39700005 .28500004 C .39700005 .354 .37500004 .41500003 .33200003 .469 C .286 .52700009 .23 .55600008 .163 .55600008 C .12900001 .55600008 .102 .55100008 .081 .5400001 C .058000003 .52500006 .036000004 .51100006 .013 .49600003 C .0040000008 .497 0 .53400006 0 .60800006 C 0 .64100006 .019000002 .66400006 .058000003 .6750001 C .07900001 .68100008 .113000009 .6840001 .158 .6840001 C .256 .6840001 .33300004 .6560001 .38800005 .59900006 C .44300003 .54200008 .47100006 .46300004 .47100006 .36400003 C .47100006 .324 .46200005 .271 .44300003 .20500002 C .42400003 .14 .41400004 .095000009 .41400004 .072000008 C .41400004 .058000003 .41900004 .038000004 .42900003 .013 C .43000005 .004 .42500005 0 .41500003 0 C .40800003 0 .39800004 .0010000002 .38500003 .004 C .37200005 .007 .36200003 .008 .35500003 .008 C .34100003 .008 .32000003 .007 .29200004 .005 C .263 .003 .242 .0019999999 .228 .0019999999 C .214 .0019999999 .193 .003 .16600001 .005 C .138 .007 .117 .008 .103 .008 Z "/>
</symbol>
<symbol id="font_0_7">
<path d="M .098000008 .015000001 C .089 .015000001 .075 .013000011 .057000005 .008000001 C .039000006 .003000006 .026 0 .017 0 C .006 0 0 .008000001 0 .024000004 C 0 .043000014 .006 .06700002 .018000002 .096000019 C .032 .13100001 .047000003 .148 .063 .14600003 C .108 .141 .139 .13800001 .155 .13800001 C .16600001 .13800001 .18300002 .14000002 .20500002 .14400003 C .22600001 .148 .24200002 .15 .25300003 .15 C .263 .15 .26800005 .14400003 .26800005 .13300002 C .26800005 .11500001 .26000003 .09 .244 .059000017 C .22700002 .024000004 .21000001 .007000014 .194 .007000014 C .184 .007000014 .16800002 .008000001 .147 .011000007 C .126 .0140000139 .109000008 .015000001 .098000008 .015000001 Z "/>
</symbol>
<use xlink:href="#font_0_3" transform="matrix(26.705874,0,0,-32.168,30.998314,43.442388)" fill="#8a0c15"/>
<use xlink:href="#font_0_4" transform="matrix(26.705874,0,0,-32.168,46.11384,43.538888)" fill="#8a0c15"/>
<use xlink:href="#font_0_5" transform="matrix(26.705874,0,0,-32.168,59.35995,43.442388)" fill="#8a0c15"/>
<use xlink:href="#font_0_3" transform="matrix(26.705874,0,0,-32.168,71.64465,43.442388)" fill="#8a0c15"/>
<use xlink:href="#font_0_6" transform="matrix(26.705874,0,0,-32.168,86.59994,43.442388)" fill="#8a0c15"/>
<use xlink:href="#font_0_7" transform="matrix(26.705874,0,0,-32.168,100.43358,38.005994)" fill="#8a0c15"/>
<symbol id="font_0_8">
<path d="M .535 .013 C .535 .004 .527 0 .512 0 C .50200006 0 .48700003 .0010000002 .46700005 .004 C .44700004 .007 .43200005 .008 .42100004 .008 C .41100005 .008 .39600004 .007 .37500004 .005 C .35400004 .004 .33800004 .003 .32700003 .003 C .31400005 .003 .307 .007 .307 .015000001 C .316 .024 .32700003 .041 .34000004 .06600001 C .35700003 .115 .36600004 .18300002 .36600004 .272 C .36600004 .31100003 .35300002 .33 .32800005 .33 C .31400005 .33 .29400004 .326 .26900003 .31800003 C .244 .30900003 .22500001 .305 .21200001 .305 C .198 .305 .187 .31100003 .179 .323 C .172 .333 .168 .34500004 .168 .36 C .168 .374 .172 .38900004 .179 .404 C .18800001 .42200003 .199 .43100003 .21200001 .43100003 C .22000002 .42200003 .228 .41200004 .23600002 .40300004 C .24300002 .39600004 .256 .393 .27400003 .393 C .31900005 .393 .34800003 .402 .36 .42000003 C .36900003 .43400003 .37400005 .46400003 .37400005 .5130001 C .37400005 .58400008 .34900005 .62000009 .29800005 .62000009 C .235 .62000009 .18800001 .58100005 .15900001 .503 C .138 .448 .128 .38300003 .128 .30600003 C .128 .25800003 .135 .21300002 .149 .171 C .169 .112 .198 .082 .237 .082 C .244 .082 .25400005 .085 .26800005 .091000009 C .279 .087000008 .28400005 .078 .28400005 .063 C .28400005 .044 .27600003 .030000002 .26100005 .019000002 C .246 .008 .228 .003 .209 .003 C .199 .003 .184 .005 .165 .008 C .145 .011 .13 .013 .120000008 .013 C .11 .013 .095 .011 .075 .006 C .054 .0019999999 .039 0 .029000003 0 C .01 0 0 .005 0 .014 L .0010000002 .02 C .019000002 .049000004 .029000003 .088 .031 .13700001 C .032 .172 .033 .207 .034 .24100001 C .036000004 .28100003 .039 .316 .044000005 .34500004 C .052000006 .38500003 .060000007 .425 .068 .46500004 C .07700001 .51400008 .082 .5540001 .082 .5860001 C .082 .59900006 .07800001 .61500009 .07100001 .63400009 C .063999999 .65200009 .060000007 .66300007 .060000007 .66700008 C .060000007 .67600008 .069000009 .68100008 .08600001 .68100008 C .098000008 .68100008 .116 .6790001 .14 .67600008 C .164 .67300006 .18200001 .67100009 .194 .67100009 C .20500002 .67100009 .221 .67300006 .244 .67600008 C .26600004 .6790001 .28300003 .68100008 .29400004 .68100008 C .30500005 .68100008 .32100005 .6790001 .34300003 .67600008 C .36500005 .67300006 .38200004 .67100009 .39300005 .67100009 C .40200005 .67100009 .41400004 .67300006 .43100003 .67800006 C .44700004 .68200007 .45900003 .6840001 .46800003 .6840001 C .48200003 .6840001 .48900006 .6790001 .48900006 .66800007 C .48900006 .6610001 .48700003 .6510001 .483 .63900008 C .47400005 .61300006 .47000004 .57600006 .47000004 .53000006 C .47000004 .476 .47700004 .39400003 .492 .284 C .49400006 .266 .49500004 .23500002 .49600003 .19000001 C .497 .15100001 .5 .120000008 .505 .098000008 C .506 .092 .51600006 .064 .535 .013 Z "/>
</symbol>
<use xlink:href="#font_0_8" transform="matrix(32.41848,0,0,-39.049,109.45091,43.49055)" fill="#8a0c15"/>
<symbol id="font_0_9">
<path d="M .48200003 .68100008 C .487 .68100008 .491 .68100008 .495 .68000009 C .499 .6790001 .501 .67600008 .501 .67200008 C .499 .66700008 .495 .6610001 .49 .65400007 C .47100003 .62900009 .45700003 .59200009 .449 .54200008 C .44 .49 .43600003 .41700004 .43600003 .324 C .43600003 .19000001 .455 .097 .49199999 .045 C .49700005 .038000004 .5 .033 .50200006 .028 C .50200006 .019000002 .49400003 .011 .47800002 .006 C .467 .0019999999 .455 0 .44300003 0 C .397 0 .363 .02 .341 .060000004 C .286 .02 .23200001 0 .18 0 C .14700002 0 .113000009 .01 .076000008 .030000002 C .037 .051000004 .012 .075 0 .104 L .006000001 .112 C .033000005 .142 .051000004 .19800002 .059000005 .28100003 C .062000004 .317 .06400001 .37800003 .06400001 .46300004 C .06400001 .50500008 .062000004 .54200008 .057 .57400009 C .052000006 .60700008 .046000005 .63100007 .038000004 .6460001 C .030000002 .6610001 .026 .6700001 .026 .67300006 C .026 .68000009 .031000004 .6840001 .040000004 .6840001 C .047000003 .6840001 .058000003 .6830001 .073 .68100008 C .087 .67800006 .098000008 .67700007 .105000007 .67700007 C .112 .67700007 .12400001 .67800006 .13900002 .6790001 C .15400002 .68000009 .165 .68100008 .172 .68100008 C .187 .68100008 .19800002 .66600009 .20700002 .63500007 C .21300002 .61300006 .21600002 .59200009 .21600002 .57100006 C .21600002 .52400007 .20300001 .45800004 .17600002 .37500004 C .149 .291 .135 .23500002 .135 .20600002 C .135 .178 .14400001 .15300001 .16100002 .132 C .17800002 .111 .20000002 .1 .22700002 .1 C .261 .1 .284 .108 .29500003 .12500002 C .316 .156 .326 .259 .326 .43300004 C .326 .507 .321 .56400009 .311 .60200008 C .307 .6190001 .304 .62900009 .301 .6330001 C .3 .63400009 .293 .64300009 .28 .65900006 C .277 .66200008 .276 .6650001 .276 .66800007 C .276 .67700007 .291 .68100008 .322 .68100008 C .331 .68100008 .343 .68100008 .358 .68000009 C .373 .6790001 .381 .67800006 .38300003 .67800006 L .48200003 .68100008 M .237 .72700008 L .21200001 .7250001 C .20800002 .7260001 .20600002 .7290001 .20600002 .73200008 C .20600002 .73700007 .21400002 .75900009 .23000002 .79700008 C .24500002 .83400008 .256 .85300007 .261 .85300007 C .266 .85300007 .273 .85200008 .282 .8510001 C .291 .8500001 .298 .8490001 .303 .8490001 C .308 .8490001 .317 .8500001 .329 .85300007 C .34 .8550001 .349 .85600009 .354 .85600009 C .365 .85600009 .37 .8510001 .37 .8400001 C .37 .83000007 .35300002 .8090001 .319 .77700009 C .285 .74500009 .262 .72700008 .25 .72400006 C .246 .7250001 .24200003 .7260001 .237 .72700008 Z "/>
</symbol>
<symbol id="font_0_a">
<path d="M .012999999 .474 C .012999999 .48200003 .0139999999 .49400003 .015 .51100006 C .015999999 .52700009 .017 .53900006 .017 .54700008 C .017 .56100007 .0139999999 .58100005 .009000001 .60700008 C .0029999996 .632 0 .6510001 0 .66400006 C 0 .67700007 .010000001 .6840001 .029000003 .6840001 C .053000004 .6840001 .09 .68100008 .14 .67600008 C .189 .67100009 .22600001 .66800007 .25100003 .66800007 C .268 .66800007 .292 .6700001 .32500003 .6740001 C .35700003 .67800006 .381 .68000009 .397 .68000009 C .40800003 .68000009 .41300003 .67600008 .41300003 .6690001 C .41300003 .6650001 .411 .65900006 .407 .6510001 C .396 .62900009 .388 .59700009 .381 .55500009 C .374 .5130001 .37100003 .46800003 .37100003 .41900004 C .382 .41900004 .389 .41900004 .391 .41900004 C .41000004 .41900004 .42700003 .41000004 .441 .39200003 C .45400004 .374 .46100004 .35500003 .46100004 .335 C .46100004 .32500003 .45700003 .32000003 .449 .32000003 C .446 .32000003 .43800003 .323 .42400003 .32900004 C .409 .33400003 .397 .337 .388 .337 C .388 .337 .38300003 .33600004 .372 .335 C .372 .32200004 .373 .30200003 .375 .27600003 C .37600003 .25000004 .377 .23 .377 .216 C .377 .149 .36200003 .097 .331 .060000004 C .29700003 .02 .24700001 0 .182 0 C .135 0 .09600001 .012 .065000008 .037 C .031000004 .063 .0139999999 .1 .0139999999 .14500001 C .0139999999 .16100002 .015999999 .178 .021000002 .19800002 C .028 .224 .036000004 .237 .046000005 .237 C .049000004 .23600002 .055 .22700002 .064 .21000001 C .074 .192 .085 .178 .097 .16800002 C .116000007 .15300001 .141 .14600002 .172 .14600002 C .22500001 .14600002 .262 .164 .282 .201 C .29700003 .22800002 .30400003 .27 .30400003 .328 C .25100003 .32500003 .223 .324 .22 .324 C .199 .324 .182 .33400003 .167 .35500003 C .152 .37600003 .145 .397 .145 .41900004 C .145 .42700003 .149 .43100003 .158 .43100003 C .163 .43100003 .176 .42800004 .19500001 .42100004 C .214 .414 .23 .41000004 .243 .41000004 C .24599999 .41000004 .26700003 .411 .306 .41300003 C .307 .43400003 .307 .44700004 .307 .45200003 C .307 .497 .298 .52700009 .28100003 .54200008 C .264 .55700007 .23200001 .56400009 .186 .56400009 C .12000001 .56400009 .079 .55100008 .064 .52400007 C .063 .52300009 .060000004 .50900009 .053000004 .48200003 C .048000006 .46300004 .041 .45400004 .031000004 .45400004 C .019000002 .45400004 .012999999 .46100004 .012999999 .474 Z "/>
</symbol>
<use xlink:href="#font_0_2" transform="matrix(26.705874,0,0,-32.168,128.51676,43.50672)" fill="#8a0c15"/>
<use xlink:href="#font_0_8" transform="matrix(26.705874,0,0,-32.168,143.09786,43.442388)" fill="#8a0c15"/>
<use xlink:href="#font_0_9" transform="matrix(26.705874,0,0,-32.168,158.66739,43.442388)" fill="#8a0c15"/>
<use xlink:href="#font_0_a" transform="matrix(26.705874,0,0,-32.168,172.87491,43.442388)" fill="#8a0c15"/>
<use xlink:href="#font_0_7" transform="matrix(26.705874,0,0,-32.168,186.06761,38.005994)" fill="#8a0c15"/>
<symbol id="font_0_b">
<path d="M .389 .185 C .398 .18800001 .40400005 .19000001 .40900005 .19000001 C .43200005 .19000001 .45000006 .18200001 .463 .165 C .476 .148 .482 .128 .482 .106000009 C .482 .072000008 .47000004 .046 .445 .027000003 C .42300005 .009000001 .39500005 0 .36 0 C .33200003 0 .29000003 .0010000002 .23400001 .003 C .177 .005 .135 .006 .10700001 .006 C .098000008 .006 .08400001 .005 .066 .004 C .048 .003 .034 .0019999999 .025000003 .0019999999 C .008 .0019999999 0 .008 0 .02 C 0 .025000003 .0020000004 .031 .005 .037 C .012 .049000004 .031000002 .071 .060000004 .103 C .094000007 .14 .115 .164 .123 .17400001 C .158 .21900001 .192 .27 .22500001 .32700003 C .27000005 .404 .29300005 .45800004 .29300005 .49 C .29300005 .53200009 .26200003 .55300006 .19900002 .55300006 C .17400001 .55300006 .15100001 .54800006 .13100001 .53800007 C .120000008 .53300008 .10700001 .52400007 .09200001 .512 C .081 .50200006 .073 .497 .068 .497 C .057000005 .497 .051000004 .50600007 .051000004 .52400007 C .051000004 .53200009 .053000004 .544 .056 .56100007 C .059000005 .5770001 .060000004 .58900007 .060000004 .5960001 C .060000004 .60200008 .060000004 .61100009 .059000005 .62200006 C .058000003 .6330001 .058000003 .64000007 .058000003 .64500007 C .058000003 .66400006 .071 .67600008 .096 .68100008 C .101 .68200007 .12100001 .68200007 .156 .68200007 C .17 .68200007 .19100002 .68000009 .22000002 .67700007 C .24800001 .6740001 .269 .67200008 .283 .67200008 C .305 .67200008 .338 .6740001 .38100005 .67700007 C .42400003 .68000009 .45600004 .68200007 .477 .68200007 C .49400003 .68200007 .50200006 .67700007 .50200006 .66700008 C .50200006 .66700008 .47900004 .63000008 .43300004 .55600008 C .38 .469 .337 .39600004 .306 .337 C .26 .25300003 .23700002 .19800002 .23700002 .172 C .23700002 .14400001 .261 .13000001 .31 .13000001 C .36700005 .13000001 .39600004 .143 .39600004 .169 C .39600004 .17500001 .394 .18100001 .389 .185 Z "/>
</symbol>
<use xlink:href="#font_0_b" transform="matrix(32.41848,0,0,-39.049,194.0469,43.49055)" fill="#8a0c15"/>
<symbol id="font_0_c">
<path d="M .154 .55500009 C .105000007 .55500009 .080000009 .53200009 .080000009 .48700003 C .080000009 .43100003 .128 .40300004 .223 .40300004 C .25800003 .40300004 .298 .41300003 .34300003 .43400003 C .35000003 .43400003 .35700003 .42400003 .36200003 .40500004 C .365 .39000003 .367 .377 .367 .36600004 C .367 .32900004 .347 .31 .307 .31 C .286 .31 .256 .317 .21700001 .33 C .178 .34300003 .148 .35000003 .128 .35000003 C .104 .35000003 .092 .335 .092 .305 C .092 .26000003 .119 .22100002 .17300001 .18900001 C .22000002 .16000001 .26700003 .14600002 .316 .14600002 C .36600004 .14600002 .40300004 .163 .42600004 .19700001 C .43300004 .208 .439 .21300002 .44300003 .21300002 C .45900003 .21300002 .467 .194 .467 .156 C .467 .11000001 .44500003 .071 .4 .041 C .361 .014 .317 0 .268 0 C .171 0 .1 .037 .055 .111 C .018 .171 0 .252 0 .356 C 0 .42200003 .009 .483 .026999999 .53900006 C .052 .6140001 .08800001 .65900006 .13700001 .67600008 C .15300001 .68100008 .177 .6840001 .21000001 .6840001 C .243 .6840001 .305 .67800006 .39600004 .66600009 C .402 .6650001 .41000004 .66800007 .42100004 .6740001 C .432 .6790001 .43800003 .68200007 .441 .68200007 C .448 .68200007 .45100004 .67800006 .45100004 .6700001 C .45100004 .5730001 .41500003 .52500006 .344 .52500006 C .323 .52500006 .291 .53000006 .24900002 .5400001 C .207 .5500001 .17500001 .55500009 .154 .55500009 Z "/>
</symbol>
<symbol id="font_0_d">
<path d="M .038000004 .5400001 C .038000004 .572 .032 .60200008 .019000002 .63000008 C .006000001 .65800008 0 .6700001 0 .66600009 C 0 .67600008 .008000001 .68100008 .023000002 .68100008 C .039000006 .68100008 .063 .6790001 .095000009 .67600008 C .12600002 .67200008 .15 .6700001 .16600001 .6700001 C .19300002 .6700001 .23400003 .67200008 .28900004 .67600008 C .344 .6790001 .38500003 .68100008 .41200004 .68100008 C .43000005 .68100008 .45700003 .6790001 .49300007 .6740001 C .529 .6690001 .556 .66600009 .575 .66600009 C .586 .66600009 .6 .6690001 .619 .6750001 C .637 .68100008 .65000006 .6840001 .65900006 .6840001 C .676 .6840001 .689 .6740001 .7 .65300008 C .709 .63600006 .714 .61800006 .714 .6000001 C .714 .56700006 .709 .51400008 .7 .44000004 C .69 .36600004 .685 .31 .685 .272 C .685 .216 .689 .17300001 .69600006 .14400001 C .705 .102000009 .725 .065000008 .755 .032 C .762 .024 .76600006 .017 .76600006 .012 C .76600006 .004 .76100006 0 .75200006 0 C .744 0 .732 .0010000002 .716 .003 C .7 .005 .688 .006 .68 .006 C .67 .006 .65500006 .005 .63600006 .003 C .617 .0010000002 .602 0 .593 0 C .568 0 .555 .039 .555 .116000007 C .555 .120000008 .558 .164 .564 .24800001 C .564 .28500004 .566 .34 .57 .41300003 C .573 .45800004 .575 .48000003 .575 .47700004 C .575 .51100006 .57 .5400001 .561 .56400009 C .547 .59800007 .526 .61500009 .497 .61500009 C .44000004 .61500009 .41200004 .52000007 .41200004 .32900004 C .41200004 .26700003 .41600005 .209 .42500005 .154 C .43400003 .1 .44500003 .058000003 .45900003 .029000003 C .46400003 .02 .46600003 .014 .46600003 .012 C .46600003 .004 .46100004 0 .45100004 0 C .441 0 .42600004 .0019999999 .40500004 .006 C .38400004 .01 .36900003 .012 .358 .012 C .34900005 .012 .337 .011 .32000003 .008 C .30300004 .004 .29000003 .003 .28100003 .003 C .27300004 .003 .26900003 .007 .26900003 .014 C .26900003 .017 .27100004 .023000002 .27400003 .034 C .29900003 .113000009 .31200005 .21900001 .31200005 .354 C .31200005 .53400006 .28500004 .6240001 .231 .6240001 C .194 .6240001 .171 .58900007 .162 .51900008 C .15900001 .49500004 .157 .44700004 .157 .372 C .157 .24300002 .16100002 .158 .16800002 .117000009 C .17300001 .093 .176 .078 .17900002 .07 C .18100003 .067 .19 .054 .20500002 .031 C .20900002 .025000003 .21100003 .019000002 .21100003 .014 C .21100003 .007 .20700002 .003 .19800002 .003 C .18900001 .003 .176 .004 .15900001 .007 C .141 .01 .12800002 .011 .11900001 .011 C .108 .011 .093 .01 .072000008 .007 C .051000008 .004 .035000005 .003 .025000003 .003 C .012000002 .003 .006000001 .007 .006000001 .016 C .006000001 .013 .012000002 .026 .023000002 .054 C .034 .081 .04 .108 .04 .135 C .04 .18 .04 .24700001 .039000006 .337 C .038000004 .42700003 .038000004 .49500004 .038000004 .5400001 Z "/>
</symbol>
<symbol id="font_0_e">
<path d="M .014999999 0 C .004999999 0 0 .004 0 .011 C 0 .012 .0069999995 .021000002 .021 .039 C .034 .056 .041 .077 .041 .102000009 C .041 .135 .042000005 .185 .043000007 .252 C .044 .31800003 .045 .36800004 .045 .40100003 C .045 .503 .043000007 .56600007 .04 .59200009 C .039000006 .6000001 .034 .61300006 .025 .632 C .016 .6510001 .012 .6600001 .012 .6610001 C .012 .6700001 .020000002 .6750001 .035000005 .6740001 C .15400002 .66700008 .22500001 .66400006 .24900003 .66400006 C .262 .66400006 .282 .66700008 .308 .6740001 C .334 .68100008 .35300002 .6840001 .365 .6840001 C .391 .6840001 .414 .65300008 .43400003 .59200009 C .451 .54200008 .45900003 .50000008 .45900003 .46500004 C .45900003 .397 .444 .33 .41300003 .263 C .375 .18 .326 .139 .267 .139 C .24800001 .139 .23 .14500001 .21300002 .158 C .19600001 .171 .18800001 .186 .18800001 .20500002 C .18800001 .21700001 .19600001 .23200001 .21100001 .24900002 C .22700002 .266 .24000003 .275 .251 .275 C .257 .275 .262 .273 .267 .27 C .262 .25800003 .259 .24800001 .259 .23900001 C .259 .22000002 .268 .21000001 .285 .21000001 C .322 .21000001 .341 .25300003 .341 .33900003 C .341 .39200003 .333 .44500003 .316 .49800004 C .293 .57100006 .261 .60700008 .21900001 .60700008 C .17600002 .60700008 .155 .56100007 .155 .46800003 C .155 .45800004 .155 .44700004 .155 .43300004 C .155 .418 .155 .409 .155 .40500004 C .155 .284 .16000001 .2 .171 .15300001 C .18400002 .097 .20300001 .058000003 .22700002 .035 C .23 .033 .23300003 .029000003 .23800002 .024 C .24100001 .02 .242 .017 .242 .014 C .242 .005 .23400001 0 .21700001 0 C .20400001 0 .186 .0019999999 .16100002 .005 C .136 .008 .11700001 .01 .104 .01 C .094000007 .01 .079 .008 .060000004 .005 C .04 .0019999999 .025 0 .014999999 0 Z "/>
</symbol>
<symbol id="font_0_f">
<path d="M .35900004 .47300003 C .35900004 .42400003 .35900004 .404 .36 .411 C .35800005 .377 .351 .36 .33900003 .36 C .33500005 .36 .32900004 .361 .321 .363 C .31200005 .365 .30600003 .36600004 .30200003 .36600004 C .28900004 .36600004 .28300003 .35900004 .28300003 .344 C .28300003 .31500004 .307 .261 .35400004 .18200001 C .40100003 .103 .42400003 .049000004 .42400003 .022 C .42400003 .007 .41700004 0 .40300004 0 C .39600004 0 .38500003 .0010000002 .37000004 .003 C .35500003 .006 .344 .007 .337 .007 C .323 .007 .30200003 .006 .27500005 .003 C .24700001 .0010000002 .22600001 0 .21200001 0 C .201 0 .18400002 .0010000002 .16100002 .0019999999 C .13800001 .003 .121000017 .004 .11000001 .004 C .1 .004 .08500001 .003 .065000008 .0019999999 C .045 .0010000002 .030000002 0 .020000004 0 C .007000003 0 0 .007 0 .022 C 0 .030000002 .0020000004 .041 .006000001 .054 C .018000003 .094000007 .024000004 .149 .024000004 .21800001 C .024000004 .23200001 .023000002 .25000004 .020000004 .273 C .017 .303 .016000003 .32200004 .015000001 .328 C .011000004 .386 .009000003 .45800004 .009000003 .54300007 C .009000003 .6370001 .031000004 .6840001 .075 .6840001 C .08400001 .6840001 .09700001 .68200007 .114 .6790001 C .13100001 .6750001 .144 .67300006 .153 .67300006 C .16 .67300006 .171 .6750001 .18400002 .6790001 C .197 .68200007 .20700002 .6840001 .21400002 .6840001 C .22700003 .6840001 .23300001 .6790001 .23300001 .6700001 C .23300001 .6650001 .22300002 .65000006 .20300001 .6230001 C .18100003 .595 .16800002 .5730001 .164 .558 C .15800002 .53700008 .155 .504 .155 .45800004 C .155 .39000003 .148 .321 .13500002 .24900002 C .125 .19500001 .12000001 .15900001 .12000001 .139 C .12000001 .11400001 .127 .093 .14000002 .075 C .153 .057 .17200002 .048 .19500003 .048 C .21700001 .048 .23400003 .056 .24600002 .071 C .25800003 .087000008 .26400004 .106000009 .26400004 .128 C .26400004 .15200001 .25800003 .19000001 .24600002 .24300002 C .23300001 .29500003 .22700003 .337 .22700003 .36800004 C .22700003 .40300004 .231 .43 .23900002 .44700004 C .25100003 .47200004 .27300004 .48400004 .30400003 .48400004 C .31700004 .48400004 .32600004 .48400004 .32900004 .485 C .33 .48600004 .33400003 .48700003 .33900003 .49 C .344 .492 .34800003 .49300004 .34900005 .49300004 C .35600005 .49300004 .35900004 .48600004 .35900004 .47300003 Z "/>
</symbol>
<symbol id="font_0_10">
<path d="M .154 .55500009 C .105000007 .55500009 .08 .53200009 .08 .48700003 C .08 .43100003 .128 .40300004 .223 .40300004 C .25800003 .40300004 .29800005 .41300003 .34300003 .43400003 C .35000003 .43400003 .35700003 .42400003 .36200003 .40500004 C .36500005 .39000003 .36700005 .377 .36700005 .36600004 C .36700005 .32900004 .34700004 .31 .30700005 .31 C .286 .31 .256 .317 .21700001 .33 C .178 .34300003 .148 .35000003 .128 .35000003 C .104 .35000003 .09200001 .335 .09200001 .305 C .09200001 .26000003 .119 .22100002 .17300001 .18900001 C .22000002 .16000001 .26700003 .14600002 .316 .14600002 C .36600004 .14600002 .40300004 .163 .42600004 .19700001 C .43300004 .208 .43900005 .21300002 .44300003 .21300002 C .45900003 .21300002 .46700005 .194 .46700005 .156 C .46700005 .11000001 .44500003 .071 .40000005 .041 C .36100004 .014 .31700004 0 .26800005 0 C .171 0 .10000001 .037 .055000005 .111 C .018000003 .171 0 .252 0 .356 C 0 .42200003 .009 .483 .027000003 .53900006 C .052000006 .6140001 .088 .65900006 .13700001 .67600008 C .153 .68100008 .177 .6840001 .21000001 .6840001 C .24300002 .6840001 .30500005 .67800006 .39600004 .66600009 C .40200005 .6650001 .41000004 .66800007 .42100004 .6740001 C .43200005 .6790001 .43800003 .68200007 .44100005 .68200007 C .44800005 .68200007 .45100004 .67800006 .45100004 .6700001 C .45100004 .5730001 .41500003 .52500006 .34400005 .52500006 C .323 .52500006 .29100005 .53000006 .249 .5400001 C .207 .5500001 .17500001 .55500009 .154 .55500009 M .23100002 .72700008 L .206 .7250001 C .202 .7260001 .2 .7290001 .2 .73200008 C .2 .73700007 .208 .75900009 .224 .79700008 C .23900001 .83400008 .25000004 .85300007 .25500003 .85300007 C .26000003 .85300007 .26700003 .85200008 .27600003 .8510001 C .28500004 .8500001 .29200004 .8490001 .29700003 .8490001 C .30200003 .8490001 .31100003 .8500001 .323 .85300007 C .33400003 .8550001 .34300003 .85600009 .34800003 .85600009 C .35900004 .85600009 .36400003 .8510001 .36400003 .8400001 C .36400003 .83000007 .34700004 .8090001 .31300003 .77700009 C .279 .74500009 .256 .72700008 .244 .72400006 C .24 .7250001 .23600002 .7260001 .23100002 .72700008 Z "/>
</symbol>
<symbol id="font_0_11">
<path d="M .046 .5400001 C .046 .57000008 .044999999 .59000006 .043 .59900006 C .042 .6050001 .037 .61300006 .030000002 .62500008 C .022 .6370001 .018 .64400008 .018 .6470001 C .018 .6560001 .026999999 .66400006 .044999999 .6690001 C .058000003 .67200008 .072 .6740001 .08500001 .6740001 C .102 .6740001 .12500002 .6700001 .15300001 .66300007 C .209 .6700001 .24200002 .6740001 .25300003 .6740001 C .26400004 .6740001 .28000004 .67300006 .30100004 .67100009 C .32200004 .6690001 .337 .66800007 .34800003 .66800007 C .35500003 .66800007 .36400003 .6700001 .37300004 .6740001 C .38000003 .67700007 .388 .68100008 .39600004 .6840001 C .432 .6690001 .45000003 .6280001 .45000003 .56100007 C .45000003 .5220001 .44500003 .462 .43500004 .384 C .425 .305 .42000003 .246 .42000003 .20600002 C .42000003 .112 .441 .058000003 .484 .043 C .493 .04 .49800007 .036000004 .49800007 .031 C .49800007 .01 .483 0 .45400004 0 C .446 0 .43400003 .0010000002 .41900004 .0019999999 C .404 .004 .39200003 .005 .38400004 .005 C .37700004 .005 .36800004 .004 .35500003 .0019999999 C .342 .0010000002 .33200003 0 .32500003 0 C .30400003 0 .29400004 .027000003 .29400004 .080000009 C .29400004 .12100001 .3 .18100001 .31100003 .263 C .32200004 .344 .328 .40500004 .328 .446 C .328 .48800005 .323 .52300009 .312 .55200007 C .29700003 .59400007 .272 .61500009 .238 .61500009 C .19200002 .61500009 .16900002 .57900008 .16900002 .5080001 C .16900002 .48200003 .16800002 .444 .16600001 .39200003 C .164 .34100003 .16300002 .30200003 .16300002 .277 C .16300002 .21900001 .165 .177 .16900002 .15100001 C .17700002 .098000008 .194 .061 .21900001 .039 C .22300002 .036000004 .22800002 .031 .23500002 .024 C .238 .02 .23900002 .017 .23900002 .014 C .23900002 .005 .23200003 0 .21800001 0 C .202 0 .17800002 .0010000002 .14600002 .004 C .113000009 .008 .089 .009000001 .073 .009000001 C .068 .009000001 .059000005 .008 .048000006 .004 C .037 .0010000002 .028 0 .023000002 0 C .007999999 0 0 .004 0 .013 C 0 .013 .0010000002 .016 .0020000004 .022 C .015999999 .037 .025000003 .048 .028 .053000004 C .033 .062000004 .036000004 .075 .039 .094000007 C .043 .123 .044999999 .186 .044999999 .282 C .044999999 .31 .044999999 .354 .046 .411 C .046 .469 .046 .512 .046 .5400001 Z "/>
</symbol>
<use xlink:href="#font_0_c" transform="matrix(26.705874,0,0,-32.168,211.09682,43.442388)" fill="#8a0c15"/>
<use xlink:href="#font_0_d" transform="matrix(26.705874,0,0,-32.168,224.87705,43.442388)" fill="#8a0c15"/>
<use xlink:href="#font_0_e" transform="matrix(26.705874,0,0,-32.168,246.08152,43.442388)" fill="#8a0c15"/>
<use xlink:href="#font_0_f" transform="matrix(26.705874,0,0,-32.168,260.02198,43.442388)" fill="#8a0c15"/>
<use xlink:href="#font_0_10" transform="matrix(26.705874,0,0,-32.168,272.8675,43.442388)" fill="#8a0c15"/>
<use xlink:href="#font_0_11" transform="matrix(26.705874,0,0,-32.168,286.56764,43.442388)" fill="#8a0c15"/>
<path transform="matrix(1,0,0,-1,1,283.8004)" stroke-width="1.4173" stroke-linecap="butt" stroke-miterlimit="22.925585" stroke-linejoin="miter" fill="none" stroke="#8a0c15" d="M .7087 282.0917 L 306.6106 282.0917 L 306.6106 .7087 L .7087 .7087 Z "/>
<path transform="matrix(1,0,0,-1,1,283.8004)" d="M 29.6782 80.0751 L 30.0611 80.0751 L 42.7099 80.0751 C 46.453 80.1505 50.078 80.358 53.4382 80.8727 C 63.4289 82.4031 75.4311 87.1302 81.3716 93.9523 L 108.2378 119.7862 C 109.3119 120.7182 110.1951 121.3659 111.1567 122.3717 L 131.7475 142.3896 C 134.5107 145.1353 142.1836 151.6816 143.638 154.0862 C 141.0797 157.4291 137.8542 160.2184 134.909 163.4097 L 89.5127 210.0362 C 86.4128 213.3955 81.5528 217.2728 81.3195 220.4289 C 81.1225 223.1022 83.1699 225.0028 85.2783 225.7064 C 89.4351 227.0942 91.8258 223.9449 91.9451 228.6113 L 33.7904 228.6113 L 33.7904 226.0417 C 57.7857 226.0417 60.6005 218.2326 73.5877 206.896 C 77.2997 203.6563 80.0929 200.6575 83.8706 197.3903 C 85.8682 195.6626 86.6931 194.3994 88.556 192.7519 L 103.6933 178.7564 C 106.3389 175.7231 120.9699 163.2623 123.666 159.7402 C 121.4813 156.8857 113.764 149.9199 110.5835 147.03 L 80.3517 117.9723 C 79.3304 117.0836 78.6838 116.5827 77.688 115.6776 L 64.1775 102.8285 C 53.2945 92.9373 47.9024 82.6449 29.6782 82.6449 Z " fill="#1a3077" fill-rule="evenodd"/>
<path transform="matrix(1,0,0,-1,1,283.8004)" d="M 179.0657 84.282 L 183.784 84.0314 L 183.3199 80.3075 L 121.3455 80.3075 L 121.3455 82.7793 L 124.9747 82.7793 C 129.8109 82.7793 133.9427 84.098 137.3686 86.7336 C 140.7946 89.3704 142.6082 92.5013 142.8103 96.1265 L 142.8103 212.7923 C 142.6082 216.417 140.7946 219.5478 137.3686 222.1846 C 133.9427 224.8211 129.8109 226.139 124.9747 226.139 L 121.3455 226.139 L 121.3455 228.6113 L 183.3199 228.6113 L 183.3199 226.139 L 179.6927 226.139 C 173.2431 226.139 168.2036 223.9977 164.5764 219.7128 C 162.9649 217.7357 162.1585 215.5107 162.1585 213.0392 L 162.1585 95.8799 C 162.1585 92.2547 163.9233 89.1638 167.4485 86.6103 C 170.9748 84.0569 174.2295 84.282 179.0657 84.282 " fill="#1a3077"/>
<path transform="matrix(1,0,0,-1,1,283.8004)" d="M 275.6945 80.0751 L 275.3113 80.0751 L 262.6625 80.0751 C 258.9197 80.1505 255.2944 80.358 251.9342 80.8727 C 241.9435 82.4031 229.9414 87.1302 224.0011 93.9523 L 197.1346 119.7862 C 196.0608 120.7182 195.1775 121.3659 194.2157 122.3717 L 173.6252 142.3896 C 170.8617 145.1353 163.1889 151.6816 161.7347 154.0862 C 164.2927 157.4291 167.5182 160.2184 170.4634 163.4097 L 215.86 210.0362 C 218.9597 213.3955 223.8199 217.2728 224.0529 220.4289 C 224.25 223.1022 222.2025 225.0028 220.0941 225.7064 C 215.9376 227.0942 213.5466 223.9449 213.4273 228.6113 L 271.5823 228.6113 L 271.5823 226.0417 C 247.587 226.0417 244.7722 218.2326 231.7847 206.896 C 228.073 203.6563 225.2798 200.6575 221.5018 197.3903 C 219.5045 195.6626 218.6796 194.3994 216.8167 192.7519 L 201.6791 178.7564 C 199.0335 175.7231 184.4028 163.2623 181.7065 159.7402 C 183.8914 156.8857 191.6084 149.9199 194.7889 147.03 L 225.021 117.9723 C 226.042 117.0836 226.6889 116.5827 227.6844 115.6776 L 241.1949 102.8285 C 252.078 92.9373 257.4703 82.6449 275.6945 82.6449 Z " fill="#1a3077" fill-rule="evenodd"/>
<path transform="matrix(1,0,0,-1,1,283.8004)" d="M 162.2523 157.7146 L 162.2432 145.8196 C 179.1448 149.7849 198.599 165.2159 182.7397 182.522 C 172.0757 195.5988 134.238 192.9631 127.6209 199.0219 C 125.4311 204.5489 137.7689 206.6624 142.721 208.0363 C 142.8919 213.7164 142.8707 215.4336 140.9462 218.2385 C 114.7107 212.8779 94.2707 193.3866 135.4895 186.0182 C 148.0785 183.5362 163.1699 184.3875 171.4589 177.9335 C 177.1084 173.5359 175.2313 167.7739 171.0884 164.0514 C 168.3652 161.3327 165.9285 159.3632 162.2523 157.7146 Z " fill="#d2ae60" fill-rule="evenodd"/>
<path transform="matrix(1,0,0,-1,1,283.8004)" stroke-width=".216" stroke-linecap="butt" stroke-miterlimit="22.925585" stroke-linejoin="miter" fill="none" stroke="#d2ae60" d="M 162.2523 157.7146 L 162.2432 145.8196 C 179.1448 149.7849 198.599 165.2159 182.7397 182.522 C 172.0757 195.5988 134.238 192.9631 127.6209 199.0219 C 125.4311 204.5489 137.7689 206.6624 142.721 208.0363 C 142.8919 213.7164 142.8707 215.4336 140.9462 218.2385 C 114.7107 212.8779 94.2707 193.3866 135.4895 186.0182 C 148.0785 183.5362 163.1699 184.3875 171.4589 177.9335 C 177.1084 173.5359 175.2313 167.7739 171.0884 164.0514 C 168.3652 161.3327 165.9285 159.3632 162.2523 157.7146 Z "/>
<path transform="matrix(1,0,0,-1,1,283.8004)" d="M 162.2656 97.2116 C 189.1655 101.2011 168.6549 113.0771 155.2283 119.7204 C 149.4142 122.7351 138.6386 126.6897 134.7956 130.5876 C 126.5743 137.3601 138.5413 139.7546 142.8378 141.7263 L 142.8103 152.9921 C 120.6417 149.2688 109.2033 136.0712 132.2303 122.5797 C 140.8 116.9254 169.6538 107.4858 168.8913 104.1735 C 169.4795 103.5842 163.5409 102.3829 162.2662 102.1283 C 162.2662 101.1886 162.2656 101.175 162.2656 97.2116 Z " fill="#d2ae60" fill-rule="evenodd"/>
<path transform="matrix(1,0,0,-1,1,283.8004)" stroke-width=".216" stroke-linecap="butt" stroke-miterlimit="22.925585" stroke-linejoin="miter" fill="none" stroke="#d2ae60" d="M 162.2656 97.2116 C 189.1655 101.2011 168.6549 113.0771 155.2283 119.7204 C 149.4142 122.7351 138.6386 126.6897 134.7956 130.5876 C 126.5743 137.3601 138.5413 139.7546 142.8378 141.7263 L 142.8103 152.9921 C 120.6417 149.2688 109.2033 136.0712 132.2303 122.5797 C 140.8 116.9254 169.6538 107.4858 168.8913 104.1735 C 169.4795 103.5842 163.5409 102.3829 162.2662 102.1283 C 162.2662 101.1886 162.2656 101.175 162.2656 97.2116 Z "/>
<path transform="matrix(1,0,0,-1,1,283.8004)" d="M 162.2585 209.9608 L 170.5949 209.8905 C 175.5867 209.2584 179.3585 200.1878 193.1604 205.2062 C 195.2254 216.7954 183.8435 222.5701 172.2288 220.3084 C 169.2711 219.7324 168.6515 220.3308 165.0892 220.1306 C 162.5091 217.8164 162.0717 214.6847 162.2585 209.9608 Z " fill="#d2ae60" fill-rule="evenodd"/>
<path transform="matrix(1,0,0,-1,1,283.8004)" stroke-width=".216" stroke-linecap="butt" stroke-miterlimit="22.925585" stroke-linejoin="miter" fill="none" stroke="#d2ae60" d="M 162.2585 209.9608 L 170.5949 209.8905 C 175.5867 209.2584 179.3585 200.1878 193.1604 205.2062 C 195.2254 216.7954 183.8435 222.5701 172.2288 220.3084 C 169.2711 219.7324 168.6515 220.3308 165.0892 220.1306 C 162.5091 217.8164 162.0717 214.6847 162.2585 209.9608 Z "/>
<path transform="matrix(1,0,0,-1,1,283.8004)" d="M 151.2502 68.2387 C 151.0546 68.4502 150.7867 68.7251 150.6529 68.8632 C 145.9191 73.0225 145.1718 74.5328 143.3134 76.9507 C 137.1793 84.9336 137.7774 93.6116 142.6482 95.4561 C 142.8106 96.6458 142.7017 97.6476 142.7017 100.0434 C 137.0693 96.2872 132.8794 93.9475 136.3745 83.5517 C 138.1039 77.2569 145.0086 69.9432 151.2502 68.2387 Z " fill="#d2ae60" fill-rule="evenodd"/>
<path transform="matrix(1,0,0,-1,1,283.8004)" stroke-width=".216" stroke-linecap="butt" stroke-miterlimit="22.925585" stroke-linejoin="miter" fill="none" stroke="#d2ae60" d="M 151.2502 68.2387 C 151.0546 68.4502 150.7867 68.7251 150.6529 68.8632 C 145.9191 73.0225 145.1718 74.5328 143.3134 76.9507 C 137.1793 84.9336 137.7774 93.6116 142.6482 95.4561 C 142.8106 96.6458 142.7017 97.6476 142.7017 100.0434 C 137.0693 96.2872 132.8794 93.9475 136.3745 83.5517 C 138.1039 77.2569 145.0086 69.9432 151.2502 68.2387 Z "/>
<path transform="matrix(1,0,0,-1,1,283.8004)" d="M 178.9274 216.3866 C 181.569 216.1006 183.4452 215.0073 184.5558 213.1064 C 181.4437 211.6063 179.5674 212.6999 178.9274 216.3866 " fill="#ffffff" fill-rule="evenodd"/>
<g id="Layer-2" data-name="Corel_OTF">
</g>
<symbol id="font_0_12">
<path d="M .02 .68600007 C .013 .68600007 .031000002 .684 .074 .68100008 C .082 .68 .093 .679 .106000009 .68 C .124000009 .683 .135 .684 .139 .684 C .172 .684 .193 .64000007 .201 .55100008 C .204 .46800003 .208 .386 .21100001 .303 C .21700001 .21400002 .235 .16900002 .264 .16900002 C .30200003 .16900002 .335 .21100001 .36200003 .29400004 C .38500003 .36100004 .396 .42000003 .396 .469 C .396 .51000007 .389 .53800007 .375 .55200007 C .368 .559 .35000003 .568 .323 .578 C .293 .58900007 .272 .59900006 .261 .60700008 C .24100001 .62200006 .231 .64000007 .231 .66300007 C .231 .67700007 .236 .684 .246 .684 C .266 .674 .286 .669 .307 .669 C .31800003 .669 .335 .67100009 .358 .674 C .381 .67700007 .398 .67800006 .409 .67800006 C .467 .67800006 .49600003 .64000007 .49600003 .563 C .49600003 .49800004 .481 .42300005 .451 .33800004 C .418 .24400002 .377 .16700001 .32700003 .106000009 C .268 .035 .204 0 .136 0 C .11900001 0 .11000001 .004 .11000001 .011000001 C .11000001 .019000002 .11100001 .031000004 .11400001 .048 C .116000007 .065000008 .117000009 .07700001 .117000009 .08600001 C .117000009 .13000001 .109000008 .21400002 .094000007 .34000004 C .07700001 .47100003 .063 .55200007 .052 .583 C .049000004 .59000006 .04 .60700008 .023000002 .633 C .007999999 .657 0 .67 0 .67300006 C 0 .68200007 .0069999999 .68600007 .02 .68600007 Z "/>
</symbol>
<symbol id="font_0_13">
<path d="M .197 .109000008 C .204 .109000008 .20700002 .101 .20700002 .08400001 C .20700002 .059 .20000002 .038000004 .187 .023000002 C .174 .008 .155 0 .13 0 C .087000008 0 .053000004 .021000002 .030000002 .062000004 C .010000002 .096 0 .13700001 0 .18300002 C 0 .24800001 .018000003 .312 .054000006 .374 C .095000009 .44500003 .146 .48100005 .206 .48100005 C .21600002 .48100005 .231 .48000003 .25100003 .47700004 C .27 .474 .28500004 .47200004 .29500003 .47200004 C .30200003 .47200004 .31200005 .474 .32500003 .47700004 C .33800004 .48000003 .34700004 .48100005 .35400004 .48100005 C .36600004 .48100005 .37200005 .47700004 .37200005 .46800003 C .37200005 .46400003 .36900003 .45400004 .36300005 .437 C .35600005 .418 .35200004 .40600003 .351 .4 C .344 .36 .34100003 .279 .34100003 .156 C .34100003 .1 .34900005 .060000004 .36600004 .038000004 C .37300004 .028 .37700004 .022 .37700004 .019000002 C .37700004 .01 .37100003 .006 .36 .006 C .35200004 .006 .34000004 .007 .32400004 .009000001 C .30800004 .01 .29600004 .011 .28800003 .011 C .28100003 .011 .272 .01 .26000003 .009000001 C .24700001 .007 .238 .006 .23200003 .006 C .224 .006 .22 .009000001 .22 .014 C .22 .017 .224 .025000003 .231 .039 C .238 .053000004 .24300003 .079 .24600002 .115 C .24900002 .15200001 .25000004 .21700001 .25000004 .30900003 C .25000004 .39200003 .23300001 .43400003 .20000002 .43400003 C .169 .43400003 .144 .404 .127 .344 C .114 .3 .108 .256 .108 .21300002 C .108 .141 .12800002 .104 .16800002 .104 C .171 .104 .176 .105000007 .183 .107 C .19 .108 .194 .109000008 .197 .109000008 M .201 .53400006 L .176 .53200009 C .17200002 .53300008 .17000002 .5360001 .17000002 .53900006 C .17000002 .5450001 .178 .56600007 .194 .60400006 C .20900002 .6420001 .22 .6610001 .22500003 .6610001 C .23000002 .6610001 .23700002 .6600001 .24600002 .65900006 C .25500003 .65700009 .26200003 .6560001 .26700003 .6560001 C .272 .6560001 .28100003 .65700009 .293 .6600001 C .30400003 .66200008 .31300003 .66300007 .31800003 .66300007 C .32900004 .66300007 .33400003 .65800008 .33400003 .6470001 C .33400003 .6370001 .31700004 .61600008 .28300003 .58400008 C .24900002 .55200007 .22600001 .53400006 .21400002 .5310001 C .21000001 .53200009 .206 .53300008 .201 .53400006 Z "/>
</symbol>
<symbol id="font_0_14">
<path d="M .069000009 .472 C .07400001 .472 .08100001 .47300003 .09 .476 C .09900001 .47800002 .105000007 .47900004 .11000001 .47900004 C .116000007 .47900004 .123 .47100003 .131 .45600004 C .141 .435 .146 .425 .147 .42400003 C .152 .43400003 .157 .444 .162 .455 C .169 .46800003 .176 .47500003 .184 .47500003 C .18900001 .47500003 .19600001 .474 .207 .472 C .21700001 .469 .22500001 .46800003 .23 .46800003 C .25100003 .46800003 .26800005 .472 .28000004 .47900004 L .286 .47300003 C .28300003 .46100004 .27800004 .444 .27100004 .42000003 C .26800005 .40600003 .26500003 .391 .26200003 .37600003 C .25900004 .36200003 .249 .354 .23400001 .354 C .22700002 .354 .216 .356 .202 .361 C .18800001 .365 .178 .367 .172 .367 C .15900001 .367 .15100001 .34100003 .148 .289 C .148 .286 .148 .24700001 .148 .17400001 C .148 .12900001 .15 .09700001 .155 .076000008 C .158 .061 .16600001 .047000003 .18100001 .035 C .19500001 .022000002 .202 .014 .202 .010000001 C .202 .0030000003 .19700001 0 .187 0 C .178 0 .165 .0010000002 .148 .004 C .13 .007 .117000009 .008 .10800001 .008 C .09900001 .008 .08500001 .007 .06700001 .004 C .048 .0010000002 .035 0 .026 0 C .019000002 0 .015999999 .0030000003 .015999999 .010000001 C .015999999 .010000001 .021000002 .019000002 .031 .037 C .04 .056 .045 .072000008 .046 .087000008 C .05 .178 .052 .235 .052 .26000003 C .052 .314 .049000004 .354 .044 .379 C .042 .389 .034 .40600003 .021000002 .42900003 C .007 .45200003 0 .46300004 0 .46400003 C 0 .47100003 .009000001 .47500003 .028 .47500003 C .035 .47500003 .044 .47500003 .054 .474 C .064 .47300003 .069000009 .472 .069000009 .472 Z "/>
</symbol>
<symbol id="font_0_15">
<path d="M .49600003 .004 C .489 .004 .479 .003 .46600003 .0019999999 C .453 .0010000002 .44300003 0 .43600003 0 C .416 0 .40600003 .022 .40600003 .06600001 C .40600003 .071 .407 .079 .409 .09 C .411 .101 .412 .108 .41300003 .112 C .418 .18 .421 .24800001 .421 .314 C .421 .379 .405 .411 .37300004 .411 C .33400003 .411 .315 .34300003 .315 .208 C .315 .120000008 .323 .062000004 .34 .034 C .347 .022 .351 .015000001 .351 .012 C .351 .004 .347 0 .338 0 C .331 0 .32000003 .0010000002 .305 .0019999999 C .29000003 .003 .278 .004 .271 .004 C .26500003 .004 .256 .004 .245 .004 C .23300001 .004 .224 .004 .21800001 .004 C .207 .004 .201 .008 .201 .016 C .201 .019000002 .20400001 .024 .21100001 .033 C .22 .045 .22600001 .060000004 .229 .079 C .232 .098000008 .23300001 .142 .23300001 .21200001 C .23300001 .215 .23300001 .224 .234 .24100001 C .23500002 .25800003 .23500002 .272 .23500002 .284 C .23500002 .36900003 .21900001 .411 .186 .411 C .16 .411 .143 .38200004 .136 .323 C .133 .301 .131 .26200003 .131 .208 C .131 .164 .133 .13000001 .138 .106000009 C .139 .097 .145 .080000009 .156 .055 C .167 .030000002 .172 .016 .172 .015000001 C .172 .008 .167 .004 .157 .004 C .149 .004 .137 .005 .12000001 .006 C .10300001 .008 .09 .009000001 .08200001 .009000001 C .075 .009000001 .064 .008 .049000004 .006 C .034 .005 .022000002 .004 .015000002 .004 C .005000001 .004 0 .008 0 .015000001 C 0 .016 .005000001 .029000003 .016 .056 C .026000003 .083000008 .032000007 .1 .033 .109000008 C .038000004 .13800001 .040000008 .18100001 .040000008 .23900001 C .040000008 .33 .030000003 .397 .01 .44200004 C .005000001 .45400004 .0020000004 .462 .0020000004 .46500004 C .0020000004 .476 .0090000019 .48100005 .024000003 .48100005 C .051000008 .48100005 .09200001 .47800002 .147 .47200004 C .202 .46500004 .243 .462 .27 .462 C .294 .462 .33 .46500004 .377 .47000004 C .42400003 .47500003 .46 .47700004 .484 .47700004 C .52400007 .47700004 .544 .469 .544 .45400004 C .544 .45100004 .54100009 .43300004 .53400006 .402 C .52700009 .37100003 .52300009 .351 .5220001 .34500004 C .5170001 .30200003 .51400008 .266 .51400008 .238 C .51400008 .18100001 .52000007 .132 .53200009 .09 C .53400006 .08400001 .54300007 .059 .56000009 .013 C .56000009 .004 .55200007 0 .535 0 C .52900007 0 .521 .0010000002 .512 .0019999999 C .503 .003 .497 .004 .49600003 .004 Z "/>
</symbol>
<symbol id="font_0_16">
<path d="M .23900002 .48100005 C .25100003 .48100005 .261 .476 .268 .46600003 C .275 .45700003 .282 .43400003 .291 .39800004 C .301 .35900004 .30900003 .333 .31500004 .321 C .32200004 .307 .326 .296 .326 .289 C .326 .27400003 .31 .263 .279 .25500003 C .272 .25300003 .24700001 .24300002 .20400001 .22700002 C .169 .21400002 .14600002 .207 .136 .207 C .112 .207 .1 .22000002 .1 .245 C .1 .266 .10800001 .27600003 .12300001 .27600003 C .128 .27600003 .134 .275 .143 .272 C .15200001 .26900003 .158 .268 .163 .268 C .17300001 .268 .18400002 .271 .19500001 .27800004 C .20600002 .284 .21200001 .291 .21200001 .3 C .21200001 .314 .20500002 .337 .19100002 .36900003 C .17500001 .404 .16000001 .42200003 .147 .42200003 C .124 .42200003 .105000007 .40300004 .092 .36400003 C .082 .335 .077 .30600003 .077 .277 C .077 .23 .08800001 .19100002 .111 .158 C .13700001 .120000008 .172 .101 .21700001 .101 C .24200002 .101 .26500003 .109000008 .284 .126 C .303 .142 .31300003 .15 .31300003 .15 C .32200004 .15 .326 .143 .326 .13000001 C .326 .093 .312 .063 .28300003 .038000004 C .25500003 .013 .222 0 .185 0 C .126 0 .080000009 .025000003 .046000005 .074 C .015000001 .11800001 0 .17 0 .231 C 0 .27800004 .007999999 .32700003 .024999999 .379 C .048 .44700004 .077 .48100005 .11400001 .48100005 C .12100001 .48100005 .13100001 .48000003 .14600002 .47700004 C .16000001 .474 .171 .47300003 .178 .47300003 C .185 .47300003 .19500001 .474 .209 .47700004 C .222 .48000003 .23200003 .48100005 .23900002 .48100005 Z "/>
</symbol>
<symbol id="font_0_17">
<path d="M .051000004 .133 C .055000005 .133 .062000004 .132 .07100001 .13 C .08 .12900001 .08600001 .12799999 .09 .12799999 C .092999998 .12799999 .097 .12900001 .102 .13 C .10700001 .132 .11 .133 .113000009 .133 C .124 .133 .12900001 .127 .12900001 .114999998 C .12900001 .109 .126 .100999999 .12100001 .092 C .116 .083 .113000009 .076 .113000009 .070999998 C .113000009 .052999997 .128 .044 .157 .044 C .184 .044 .209 .048999996 .232 .059999996 C .262 .073 .277 .092 .277 .116 C .277 .127 .273 .139 .264 .154 C .254 .171 .248 .184 .24600002 .192 C .241 .209 .23900002 .238 .23900002 .278 C .23900002 .302 .24000001 .337 .24200002 .38300003 C .24400002 .42800004 .245 .458 .245 .472 C .245 .509 .24400002 .533 .241 .545 C .23500002 .574 .21900001 .588 .194 .588 C .161 .588 .13700001 .56 .12200001 .504 C .111 .46600003 .106000009 .425 .106000009 .38 C .106000009 .29900003 .128 .25800003 .17300001 .25800003 C .184 .25800003 .19600001 .263 .208 .273 C .21700001 .266 .222 .252 .222 .23200001 C .222 .208 .213 .19 .19500001 .176 C .177 .162 .156 .155 .132 .155 C .08600001 .155 .052000006 .175 .029000003 .214 C .010000002 .246 0 .287 0 .33600004 C 0 .407 .015000001 .472 .046 .533 C .08400001 .607 .134 .64400008 .19700001 .64400008 C .207 .64400008 .222 .643 .243 .64000007 C .264 .637 .28 .63600006 .291 .63600006 C .296 .63600006 .30600003 .637 .319 .64000007 C .33200003 .643 .342 .64400008 .34800003 .64400008 C .361 .64400008 .368 .638 .368 .62600007 C .368 .61800006 .36600004 .60800006 .361 .595 C .354 .578 .35000003 .569 .349 .56600007 C .342 .542 .33900003 .45600004 .33900003 .307 C .33900003 .289 .345 .263 .356 .229 C .367 .194 .37300004 .168 .37300004 .149 C .37300004 .094 .34800003 .052999997 .29700003 .027999998 C .259 .008999988 .209 0 .147 0 C .112 0 .082 .004999995 .055000005 .015999988 C .018 .030999989 0 .052999997 0 .081999998 C 0 .096999999 .004999999 .109 .015000001 .118 C .024 .12799999 .036000004 .133 .051000004 .133 Z "/>
</symbol>
<symbol id="font_0_18">
<path d="M .11000001 .0029999912 C .093 .0029999912 .08500001 .008999988 .08500001 .019999996 C .08500001 .024999991 .095000009 .032999994 .11400001 .044 C .13800001 .059999996 .155 .073 .16600001 .085 C .185 .106 .19500001 .12900001 .19500001 .155 C .19500001 .159 .193 .162 .18900001 .163 L .15400002 .163 C .11400001 .162 .086 .187 .07000001 .23900001 C .059 .274 .052000006 .32700003 .050000006 .39900003 C .049000004 .476 .047000003 .521 .044000005 .53400006 C .042000005 .54300007 .034 .56100007 .021000002 .59000006 C .007 .61800006 0 .632 0 .632 C 0 .64000007 .006 .64400008 .017 .64400008 C .024 .64400008 .034 .643 .047000003 .64100006 C .060000004 .639 .069000009 .638 .076000008 .638 C .08100001 .638 .09 .639 .102000009 .64100006 C .113000009 .643 .12200001 .64400008 .127 .64400008 C .15 .64400008 .16200002 .61300006 .16200002 .551 C .16200002 .522 .15400002 .481 .13700001 .427 C .120000008 .37300004 .11100001 .33200003 .11100001 .30400003 C .11100001 .255 .13000001 .23 .16700001 .23 C .202 .23 .22800002 .272 .24600002 .35500003 C .259 .412 .26500003 .468 .26500003 .523 C .26500003 .55200007 .259 .577 .24700001 .597 C .23400001 .616 .22800002 .62700006 .22800002 .63 C .22800002 .637 .23200001 .64100006 .24000001 .64100006 C .24600002 .64100006 .25500003 .64000007 .26700003 .638 C .27800004 .63500007 .287 .634 .293 .634 C .3 .634 .312 .63500007 .32700003 .638 C .342 .64000007 .35300002 .64100006 .36 .64100006 C .37500004 .64100006 .38300003 .633 .38300003 .61800006 C .38300003 .61200007 .36400003 .546 .326 .41900004 C .31100003 .37 .30100004 .32200004 .296 .273 C .29500003 .266 .293 .21900001 .29000003 .132 C .287 .058999994 .284 .019999996 .28 .012999997 C .275 .003999993 .26700003 0 .257 0 C .24000001 0 .216 0 .18400002 .0009999871 C .15100001 .0019999892 .127 .0029999912 .11000001 .0029999912 Z "/>
</symbol>
<symbol id="font_0_19">
<path d="M .024 .476 C .033 .476 .046 .47500003 .063999999 .474 C .081 .47300003 .09400001 .472 .103 .472 C .109 .472 .118 .47300003 .13 .47500003 C .141 .476 .15 .47700004 .155 .47700004 C .164 .47700004 .168 .47300003 .168 .465 C .168 .46400003 .16600001 .45700003 .162 .444 C .15 .407 .14400001 .322 .14400001 .191 C .14400001 .11500001 .15100001 .062000004 .165 .031000002 C .17 .021000002 .172 .015000001 .172 .012 C .172 .004 .16700001 0 .158 0 C .15100001 0 .141 .0010000002 .128 .0030000003 C .11400001 .0060000007 .104 .007 .097 .007 C .088 .007 .074 .0060000007 .056000007 .0030000003 C .038000004 .0010000002 .025000003 0 .015999999 0 C .005000001 0 0 .004 0 .011 C .0020000004 .016 .006000001 .022000002 .012 .030000002 C .036000004 .061 .048000006 .14 .048000006 .26500003 C .048000006 .356 .038000004 .414 .018 .441 C .01 .45200003 .006000001 .45900003 .006000001 .462 C .006000001 .47100003 .012 .476 .024 .476 M .154 .642 C .157 .638 .15900001 .632 .15900001 .625 C .15900001 .60800006 .15200001 .587 .13700001 .564 C .12200001 .53800007 .106000009 .52500006 .091000009 .52500006 C .07800001 .52500006 .065 .537 .053 .56200006 C .042000005 .58400008 .037 .60300007 .037 .619 C .037 .63600006 .040000004 .64500007 .046 .64500007 C .054 .64500007 .07100001 .64400008 .096 .642 C .116 .64100006 .133 .64100006 .148 .642 L .154 .642 Z "/>
</symbol>
<symbol id="font_0_1a">
<path d="M 0 0 Z "/>
</symbol>
<symbol id="font_0_1b">
<path d="M .18 .56500008 C .18 .5500001 .18 .52900007 .179 .50000008 C .17800002 .47100003 .17700002 .45000003 .17700002 .43500004 C .17700002 .39600004 .18800001 .377 .21000001 .377 C .22800002 .377 .258 .40600003 .30200003 .46300004 C .345 .52000007 .367 .56000009 .367 .58400008 C .367 .6000001 .358 .61600008 .341 .632 C .324 .64800009 .315 .65700009 .315 .6600001 C .315 .6690001 .321 .6740001 .334 .67300006 C .39200003 .67300006 .453 .67200008 .517 .6690001 C .52000007 .66700008 .522 .66200008 .522 .65300008 C .522 .62200006 .50400009 .58500006 .467 .54300007 C .456 .53000006 .42200003 .49600003 .366 .44200004 C .329 .407 .311 .38200004 .311 .36900003 C .311 .34600003 .36200003 .254 .463 .092 C .46400003 .089 .47500003 .075 .49500004 .05 C .51100006 .030000002 .51900008 .018000002 .51900008 .013 C .51900008 .004 .51100006 0 .49600003 0 C .483 0 .46400003 .0010000002 .437 .004 C .41 .007 .39000003 .008 .377 .008 C .37 .008 .36 .007 .347 .004 C .333 .0010000002 .322 0 .315 0 C .303 0 .297 .005 .297 .016 C .298 .019000002 .30200003 .025000003 .30900003 .034 C .313 .04 .315 .05 .315 .064 C .315 .09 .30200003 .132 .277 .18900001 C .24900003 .25100003 .22500001 .282 .20500002 .282 C .19000001 .282 .18300002 .271 .18300002 .24800001 C .18300002 .22800002 .187 .19600001 .19500001 .15200001 C .20400001 .106000009 .21200001 .077 .22000002 .064 C .23100002 .054 .244 .038000004 .259 .017 C .256 .008 .25 .003 .24100001 .004 C .16200002 .01 .12100001 .013 .11800001 .013 C .10700001 .013 .091000009 .011 .07000001 .006 C .048 .0019999999 .032 0 .021000002 0 C .007 0 0 .005 0 .014 C 0 .019000002 .005000001 .027000003 .016000003 .04 C .026999999 .053000004 .034 .06600001 .038000004 .078 C .041 .086 .043 .101 .046 .124000009 C .06 .237 .06700001 .372 .06700001 .52900007 C .06700001 .5770001 .064 .6090001 .057 .62500008 C .055000005 .63000008 .049000004 .6380001 .038000004 .64900007 C .026999999 .6610001 .021000002 .66800007 .021000002 .67100009 C .021000002 .68000009 .025000003 .6840001 .034 .6840001 C .094000007 .6840001 .127 .6830001 .134 .68000009 C .149 .67300006 .16100002 .6560001 .17000002 .62900009 C .17700002 .60800006 .18 .5860001 .18 .56500008 Z "/>
</symbol>
<symbol id="font_0_1c">
<path d="M .099 .48100005 C .106 .48100005 .116000007 .48000003 .13100001 .47800002 C .14500001 .47500003 .155 .47400005 .162 .47400005 C .16800002 .47400005 .19300002 .47800002 .23600003 .48500005 C .24300003 .48600004 .254 .47900004 .26700003 .46400003 C .30600003 .41900004 .32500003 .358 .32500003 .279 C .32500003 .22800002 .314 .17900002 .29200004 .13200002 C .27 .085 .23900002 .046 .199 .016 C .18600002 .005000001 .176 0 .17000002 0 C .16300002 0 .14900002 .0060000007 .13 .018000002 C .043000007 .071 0 .158 0 .279 C 0 .321 .0069999995 .36200003 .021000002 .40100003 C .039000006 .45400004 .065000008 .48100005 .099 .48100005 M .132 .42700003 C .11300001 .42700003 .099 .41700004 .089 .39800004 C .082 .38300003 .078 .365 .078 .344 C .078 .30300004 .09 .257 .114 .20600002 C .141 .14700002 .17300001 .11800001 .20900002 .11800001 C .24100003 .11800001 .25700004 .14600002 .25700004 .20200002 C .25700004 .24500002 .24600002 .29000003 .22500003 .33900003 C .199 .39800004 .16800002 .42700003 .132 .42700003 M .037 .614 C .037 .625 .050000006 .64 .07700001 .657 C .10400001 .674 .122 .682 .132 .682 C .141 .682 .14500001 .67800006 .14500001 .669 C .14500001 .666 .144 .661 .14200002 .654 C .14000002 .647 .139 .64100006 .139 .638 C .139 .637 .141 .621 .146 .588 C .14700002 .58 .134 .568 .106 .55300006 C .07700001 .538 .060000004 .53000006 .055 .53000006 C .050000006 .53000006 .045 .542 .042000005 .566 C .039000006 .585 .037 .601 .037 .614 M .185 .614 C .185 .625 .19800002 .64 .22500003 .657 C .25200004 .674 .27 .682 .28000004 .682 C .28900004 .682 .293 .67800006 .293 .669 C .293 .668 .291 .657 .28700004 .638 C .28900004 .629 .29200004 .612 .29500003 .588 C .29600004 .58100005 .28200004 .569 .25100003 .552 C .224 .537 .208 .53000006 .20300001 .53000006 C .19800002 .53000006 .19300002 .542 .18900001 .566 C .18600002 .585 .185 .601 .185 .614 Z "/>
</symbol>
<symbol id="font_0_1d">
<path d="M .15300001 .128 C .15300001 .11800001 .16200002 .11000001 .18 .105000007 C .193 .101 .20600002 .09900001 .21900001 .09900001 C .246 .09900001 .266 .101 .277 .106000009 C .285 .109000008 .293 .115 .3 .124000009 C .307 .134 .315 .141 .324 .14600002 C .337 .14400001 .344 .13100001 .344 .107 C .344 .074 .333 .047000003 .31 .028 C .287 .01 .258 0 .22300002 0 C .20800002 0 .186 .0019999999 .157 .006 C .128 .01 .105000007 .012 .09 .012 C .083000008 .012 .071 .011 .056 .008 C .04 .004 .028 .003 .021000002 .003 C .007 .003 0 .009000001 0 .021000002 C 0 .029000003 .019000002 .056 .057 .101 C .11100001 .165 .14600002 .208 .163 .231 C .201 .282 .22000002 .32000003 .22000002 .344 C .22000002 .351 .20700002 .35700003 .18100001 .361 C .163 .36400003 .14700002 .36600004 .133 .36600004 C .11400001 .36600004 .094000007 .361 .07300001 .35000003 C .052 .33900003 .04 .33400003 .039 .33400003 C .031000002 .33400003 .027 .33900003 .027 .34800003 C .027 .35700003 .030000002 .37100003 .036 .391 C .042 .41000004 .045 .42400003 .046 .43100003 C .049 .45600004 .055 .47100003 .064 .476 C .069000009 .47900004 .087000008 .48100005 .116000007 .48100005 C .133 .48100005 .158 .47800002 .19100002 .47200004 C .224 .46600003 .24800001 .46300004 .265 .46300004 C .275 .46300004 .287 .46500004 .30200003 .46800003 C .32 .47300003 .33200003 .47500003 .33900003 .476 L .349 .47300003 L .35300002 .46500004 L .351 .45400004 C .333 .432 .313 .402 .292 .36200003 C .262 .307 .24500002 .275 .24000001 .26700003 C .22500001 .245 .209 .224 .194 .20300001 C .16700001 .164 .15300001 .139 .15300001 .128 Z "/>
</symbol>
<symbol id="font_0_1e">
<path d="M .03 .536 C .03 .555 .025 .573 .014999999 .591 C .004999999 .60800006 0 .61800006 0 .62100008 C 0 .632 .004999999 .637 .016 .637 C .022000002 .637 .031999999 .63500007 .046000005 .632 C .060000004 .629 .071 .628 .078 .629 C .083000008 .63 .09900001 .633 .126 .638 C .14600002 .642 .16200002 .64400008 .17400001 .64400008 C .23300003 .64400008 .282 .61 .32 .54300007 C .35300002 .486 .36900003 .425 .36900003 .361 C .36900003 .311 .36 .26700003 .341 .228 C .317 .179 .283 .154 .23800002 .154 C .21300002 .154 .19100002 .162 .172 .18 C .15300001 .197 .143 .21700001 .143 .24200002 C .143 .26200003 .14700002 .275 .155 .282 C .16900002 .266 .18300002 .25800003 .19600001 .25800003 C .23800002 .25800003 .259 .306 .259 .40100003 C .259 .44 .254 .47800005 .244 .513 C .23 .563 .208 .588 .179 .588 C .16600001 .588 .156 .583 .148 .573 C .133 .555 .126 .46500004 .126 .303 C .126 .234 .12900001 .18100001 .136 .143 C .13800001 .132 .14600002 .107 .16100002 .069 C .17600002 .030999989 .18300002 .0119999949 .18300002 .0109999929 C .18300002 .003999993 .179 0 .17 0 C .165 0 .14500001 .00999999 .10900001 .029 C .071 .048999996 .045 .059999996 .031000002 .06299999 C .012 .066999997 .0019999985 .073 .0019999985 .08 C .0029999987 .081 .009 .091 .021 .11 C .027 .119 .03 .131 .03 .146 L .03 .536 Z "/>
</symbol>
<symbol id="font_0_1f">
<path d="M .099 .48100005 C .106 .48100005 .116000007 .48000003 .13100001 .47800002 C .14500001 .47500003 .155 .47400005 .162 .47400005 C .16800002 .47400005 .19300002 .47800002 .23600003 .48500005 C .24300003 .48600004 .254 .47900004 .26700003 .46400003 C .30600003 .41900004 .32500003 .358 .32500003 .279 C .32500003 .22800002 .314 .17900002 .29200004 .13200002 C .27 .085 .23900002 .046 .199 .016 C .18600002 .005000001 .176 0 .17000002 0 C .16300002 0 .14900002 .0060000007 .13 .018000002 C .043000007 .071 0 .158 0 .279 C 0 .321 .0069999995 .36200003 .021000002 .40100003 C .039000006 .45400004 .065000008 .48100005 .099 .48100005 M .132 .42700003 C .11300001 .42700003 .099 .41700004 .089 .39800004 C .082 .38300003 .078 .365 .078 .344 C .078 .30300004 .09 .257 .114 .20600002 C .141 .14700002 .17300001 .11800001 .20900002 .11800001 C .24100003 .11800001 .25700004 .14600002 .25700004 .20200002 C .25700004 .24500002 .24600002 .29000003 .22500003 .33900003 C .199 .39800004 .16800002 .42700003 .132 .42700003 Z "/>
</symbol>
<symbol id="font_0_20">
<path d="M .25 .003 C .23300001 .003 .224 .034 .224 .097 C .224 .12500002 .22600001 .16700001 .23000002 .222 C .234 .277 .236 .319 .236 .347 C .236 .39400003 .221 .418 .19 .418 C .148 .418 .127 .36800004 .127 .268 C .127 .259 .127 .24700001 .127 .23200001 C .128 .21700001 .128 .208 .128 .20500002 C .128 .157 .13 .123 .133 .103 C .134 .094000007 .14 .078 .15 .054 C .15900001 .031 .164 .018000002 .164 .016 C .164 .007 .15900001 .003 .148 .003 C .14 .003 .128 .004 .11200001 .006 C .09600001 .008 .08400001 .009000001 .075 .009000001 C .068 .009000001 .058000007 .008 .045 .006 C .032000007 .004 .022000002 .003 .015000002 .003 C .005000001 .003 0 .007 0 .015000001 C 0 .017 .005000001 .032 .014 .060000004 C .023 .088 .029000001 .107 .030000003 .115 C .035000005 .147 .038000004 .185 .038000004 .23 C .038000004 .29900003 .034 .35500003 .024000003 .39800004 C .023 .40300004 .019000004 .41500003 .011000002 .43300004 C .0040000008 .45100004 0 .462 0 .46500004 C 0 .476 .013000002 .48100005 .038000004 .48100005 C .057000005 .48100005 .08500001 .47900004 .123 .47500003 C .16 .47100003 .18900001 .469 .208 .469 C .21900001 .469 .236 .47100003 .259 .474 C .28100003 .47700004 .298 .47800002 .31 .47800002 C .338 .47800002 .352 .47100003 .352 .45800004 C .352 .45400004 .34800003 .43600003 .34100003 .402 C .333 .36600004 .329 .34500004 .328 .337 C .323 .29200004 .32000003 .252 .32000003 .216 C .32000003 .192 .322 .164 .326 .133 C .331 .095000009 .337 .069000009 .345 .056 C .36200003 .028 .37 .013 .37 .011 C .37 .004 .365 0 .354 0 C .347 0 .33600004 .0010000002 .321 .003 C .307 .005 .296 .006 .289 .006 C .285 .006 .278 .005 .27 .004 C .261 .003 .255 .003 .25 .003 Z "/>
</symbol>
<symbol id="font_0_21">
<path d="M .133 .40600003 C .13000001 .36900003 .128 .323 .128 .266 C .128 .143 .14 .067 .164 .036000004 C .172 .026 .176 .019000002 .176 .016 C .176 .009000001 .171 .005 .16000001 .005 C .153 .005 .143 .006 .12900001 .008 C .11500001 .009000001 .105000007 .01 .098000008 .01 C .088 .01 .074 .008 .055000005 .005 C .036000004 .0019999999 .022000004 0 .013 0 C .0040000008 0 0 .003 0 .01 C 0 .012 .0040000008 .019000002 .013 .032 C .022000004 .044 .027000003 .052 .029000003 .057 C .035000005 .076000008 .038000004 .158 .038000004 .301 C .038000004 .356 .035000005 .39200003 .030000002 .40800003 C .029000003 .41200004 .024 .41900004 .016000003 .43 C .008000001 .441 .0040000008 .44700004 .0040000008 .45000003 C .0040000008 .455 .006000001 .45900003 .010000002 .462 C .014000002 .46500004 .019000002 .469 .026 .47300003 C .045000007 .485 .065 .507 .08600001 .5400001 C .08700001 .54200008 .09900001 .56500008 .120000008 .6090001 C .138 .6460001 .149 .66400006 .154 .66400006 C .161 .66400006 .165 .65900006 .165 .65000006 C .165 .64100006 .16000001 .62100008 .15100001 .59000006 C .141 .558 .136 .53400006 .136 .5170001 C .136 .49400003 .146 .483 .16600001 .483 C .176 .483 .185 .48800005 .194 .49800004 C .19500001 .47900004 .19500001 .467 .19500001 .462 C .19500001 .43500004 .192 .41900004 .186 .414 C .18 .409 .162 .40600003 .133 .40600003 Z "/>
</symbol>
<symbol id="font_0_22">
<path d="M .099 .48100005 C .106 .48100005 .116000007 .48000003 .13100001 .47800002 C .14500001 .47500003 .155 .47400005 .162 .47400005 C .16800002 .47400005 .19300002 .47800002 .23600003 .48500005 C .24300003 .48600004 .254 .47900004 .26700003 .46400003 C .30600003 .41900004 .32500003 .358 .32500003 .279 C .32500003 .22800002 .314 .17900002 .29200004 .13200002 C .27 .085 .23900002 .046 .199 .016 C .18600002 .005000001 .176 0 .17000002 0 C .16300002 0 .14900002 .0060000007 .13 .018000002 C .043000007 .071 0 .158 0 .279 C 0 .321 .0069999995 .36200003 .021000002 .40100003 C .039000006 .45400004 .065000008 .48100005 .099 .48100005 M .132 .42700003 C .11300001 .42700003 .099 .41700004 .089 .39800004 C .082 .38300003 .078 .365 .078 .344 C .078 .30300004 .09 .257 .114 .20600002 C .141 .14700002 .17300001 .11800001 .20900002 .11800001 C .24100003 .11800001 .25700004 .14600002 .25700004 .20200002 C .25700004 .24500002 .24600002 .29000003 .22500003 .33900003 C .199 .39800004 .16800002 .42700003 .132 .42700003 M .14500001 .538 L .12000001 .536 C .116000007 .537 .114 .54 .114 .543 C .114 .548 .122 .57 .13800001 .608 C .153 .645 .164 .66400006 .169 .66400006 C .174 .66400006 .18100003 .663 .19 .662 C .199 .661 .206 .66 .21100003 .66 C .21600002 .66 .22500003 .661 .23700002 .66400006 C .24800003 .666 .25700004 .667 .26200003 .667 C .27300004 .667 .27800004 .662 .27800004 .651 C .27800004 .64100006 .261 .62 .22700003 .588 C .19300002 .556 .17000002 .538 .15800002 .535 C .15400002 .536 .15 .537 .14500001 .538 Z "/>
</symbol>
<symbol id="font_0_23">
<path d="M .19200002 .41700004 C .16100002 .41700004 .14100002 .40100003 .13400002 .36900003 C .13300002 .36200003 .13200002 .333 .13200002 .284 C .13200002 .193 .136 .126 .14400001 .083000008 C .14600002 .074 .15200001 .060000004 .16300002 .04 C .17400001 .021000002 .17900002 .011 .17900002 .01 C .17900002 .003 .17400001 0 .16400002 0 C .15600002 0 .14400001 .0019999999 .12900001 .005 C .114 .008 .102000009 .01 .094000007 .01 C .086 .01 .073 .009000001 .056 .008 C .039000006 .006 .026000003 .005 .018000002 .005 C .005999999 .005 0 .009000001 0 .017 C .009 .028 .019 .048 .03 .078 C .031999999 .091000009 .033 .122 .034 .17300001 C .035000005 .34300003 .036 .432 .036 .44000004 C .036 .47700004 .036 .503 .035000005 .51900008 C .034 .535 .027999999 .5500001 .018000002 .5630001 C .007999999 .57600006 .0030000006 .58400008 .0030000006 .5870001 C .0030000006 .59400007 .012 .59900006 .031000002 .60200008 C .049999998 .60400006 .074 .61500009 .105 .63600006 C .13400002 .65500006 .15300001 .6650001 .16200002 .6650001 C .16900002 .6650001 .172 .66200008 .172 .6560001 C .172 .6560001 .16700001 .6460001 .157 .62500008 C .14700002 .60400006 .14100002 .5910001 .13900002 .58400008 C .135 .5630001 .13200002 .53300008 .13200002 .49600003 C .13200002 .469 .13900002 .455 .15400002 .455 C .16900002 .455 .19200002 .45900003 .22400002 .467 C .256 .47500003 .28100003 .47900004 .297 .47900004 C .312 .47900004 .327 .476 .34100003 .47100003 C .36 .46400003 .36900003 .45400004 .36900003 .44200004 C .35 .39200003 .34 .32900004 .34 .25100003 C .34 .2 .342 .162 .345 .139 C .352 .094000007 .366 .060000004 .387 .037 C .398 .025000003 .404 .016 .404 .011 C .404 .004 .39900003 0 .389 0 C .382 0 .373 .0010000002 .36 .003 C .347 .005 .338 .006 .33200003 .006 C .32500003 .006 .316 .005 .304 .003 C .291 .0010000002 .282 0 .276 0 C .26500003 0 .257 .009000001 .254 .026 C .24900003 .048 .24700003 .073 .246 .101 C .24500002 .12100001 .24500002 .147 .246 .178 C .24700003 .22100002 .24700003 .246 .24700003 .254 C .24700003 .259 .24800001 .26900003 .24900003 .284 C .25 .3 .25 .312 .25 .321 C .25 .38500003 .23100002 .41700004 .19200002 .41700004 Z "/>
</symbol>
<use xlink:href="#font_0_12" transform="matrix(26.27279,0,0,-25.826,12.537527,239.92406)" fill="#1a3077"/>
<use xlink:href="#font_0_13" transform="matrix(26.27279,0,0,-25.826,28.166296,239.8724)" fill="#1a3077"/>
<use xlink:href="#font_0_14" transform="matrix(26.27279,0,0,-25.826,40.537668,239.82076)" fill="#1a3077"/>
<use xlink:href="#font_0_15" transform="matrix(26.27279,0,0,-25.826,50.57108,239.8724)" fill="#1a3077"/>
<use xlink:href="#font_0_16" transform="matrix(26.27279,0,0,-25.826,68.14387,239.8724)" fill="#1a3077"/>
<use xlink:href="#font_0_17" transform="matrix(26.27279,0,0,-25.826,79.30664,244.08205)" fill="#1a3077"/>
<use xlink:href="#font_0_18" transform="matrix(26.27279,0,0,-25.826,91.704219,244.08205)" fill="#1a3077"/>
<use xlink:href="#font_0_16" transform="matrix(26.27279,0,0,-25.826,103.47104,239.8724)" fill="#1a3077"/>
<use xlink:href="#font_0_19" transform="matrix(26.27279,0,0,-25.826,114.76485,239.82076)" fill="#1a3077"/>
<use xlink:href="#font_0_1a" transform="matrix(26.27279,0,0,-25.826,120.57113,239.69162)" fill="#1a3077"/>
<use xlink:href="#font_0_1a" transform="matrix(26.27279,0,0,-25.826,126.2986,239.69162)" fill="#1a3077"/>
<use xlink:href="#font_0_1b" transform="matrix(26.27279,0,0,-25.826,128.21743,239.8724)" fill="#1a3077"/>
<use xlink:href="#font_0_1c" transform="matrix(26.27279,0,0,-25.826,144.52935,239.97571)" fill="#1a3077"/>
<use xlink:href="#font_0_1d" transform="matrix(26.27279,0,0,-25.826,155.19298,239.8724)" fill="#1a3077"/>
<use xlink:href="#font_0_1e" transform="matrix(26.27279,0,0,-25.826,167.1437,244.08205)" fill="#1a3077"/>
<use xlink:href="#font_0_1f" transform="matrix(26.27279,0,0,-25.826,179.3574,239.97571)" fill="#1a3077"/>
<use xlink:href="#font_0_20" transform="matrix(26.27279,0,0,-25.826,190.75684,239.8724)" fill="#1a3077"/>
<use xlink:href="#font_0_21" transform="matrix(26.27279,0,0,-25.826,203.28559,239.8724)" fill="#1a3077"/>
<use xlink:href="#font_0_19" transform="matrix(26.27279,0,0,-25.826,211.05919,239.82076)" fill="#1a3077"/>
<use xlink:href="#font_0_1a" transform="matrix(26.27279,0,0,-25.826,216.86548,239.69162)" fill="#1a3077"/>
<use xlink:href="#font_0_1a" transform="matrix(26.27279,0,0,-25.826,222.59294,239.69162)" fill="#1a3077"/>
<use xlink:href="#font_0_1b" transform="matrix(26.27279,0,0,-25.826,224.51178,239.8724)" fill="#1a3077"/>
<use xlink:href="#font_0_22" transform="matrix(26.27279,0,0,-25.826,240.82369,239.97571)" fill="#1a3077"/>
<use xlink:href="#font_0_14" transform="matrix(26.27279,0,0,-25.826,251.67104,239.82076)" fill="#1a3077"/>
<use xlink:href="#font_0_23" transform="matrix(26.27279,0,0,-25.826,261.57249,239.8724)" fill="#1a3077"/>
<use xlink:href="#font_0_13" transform="matrix(26.27279,0,0,-25.826,274.12736,239.8724)" fill="#1a3077"/>
<use xlink:href="#font_0_1d" transform="matrix(26.27279,0,0,-25.826,286.2094,239.8724)" fill="#1a3077"/>
<g id="Layer-2" data-name="Corel_OTF">
</g>
<symbol id="font_0_24">
<path d="M .23900002 .48100005 C .25100003 .48100005 .261 .476 .268 .46600003 C .275 .45700003 .282 .43400003 .291 .39800004 C .301 .35900004 .30900003 .333 .31500004 .321 C .32200004 .307 .326 .296 .326 .289 C .326 .27400003 .31 .263 .279 .25500003 C .272 .25300003 .24700001 .24300002 .20400001 .22700002 C .169 .21400002 .14600002 .207 .136 .207 C .112 .207 .1 .22000002 .1 .245 C .1 .266 .10800001 .27600003 .12300001 .27600003 C .128 .27600003 .134 .275 .143 .272 C .15200001 .26900003 .158 .268 .163 .268 C .17300001 .268 .18400002 .271 .19500001 .27800004 C .20600002 .284 .21200001 .291 .21200001 .3 C .21200001 .314 .20500002 .337 .19100002 .36900003 C .17500001 .404 .16000001 .42200003 .147 .42200003 C .124 .42200003 .105000007 .40300004 .092 .36400003 C .082 .335 .077 .30600003 .077 .277 C .077 .23 .08800001 .19100002 .111 .158 C .13700001 .120000008 .172 .101 .21700001 .101 C .24200002 .101 .26500003 .109000008 .284 .126 C .303 .142 .31300003 .15 .31300003 .15 C .32200004 .15 .326 .143 .326 .13000001 C .326 .093 .312 .063 .28300003 .038000004 C .25500003 .013 .222 0 .185 0 C .126 0 .080000009 .025000003 .046000005 .074 C .015000001 .11800001 0 .17 0 .231 C 0 .27800004 .007999999 .32700003 .024999999 .379 C .048 .44700004 .077 .48100005 .11400001 .48100005 C .12100001 .48100005 .13100001 .48000003 .14600002 .47700004 C .16000001 .474 .171 .47300003 .178 .47300003 C .185 .47300003 .19500001 .474 .209 .47700004 C .222 .48000003 .23200003 .48100005 .23900002 .48100005 M .14500001 .53400006 L .120000008 .53200009 C .11600001 .53300008 .11400001 .5360001 .11400001 .53900006 C .11400001 .544 .12200001 .56600007 .13800001 .60400006 C .15300001 .64100006 .164 .6600001 .169 .6600001 C .17400001 .6600001 .18100001 .65900006 .19000001 .65800008 C .19900002 .65700009 .20600002 .6560001 .21100001 .6560001 C .216 .6560001 .22500001 .65700009 .23700002 .6600001 C .24800003 .66200008 .257 .66300007 .26200003 .66300007 C .273 .66300007 .27800004 .65800008 .27800004 .6470001 C .27800004 .6370001 .261 .61600008 .227 .58400008 C .193 .55200007 .17 .53400006 .158 .5310001 C .154 .53200009 .15 .53300008 .14500001 .53400006 Z "/>
</symbol>
<symbol id="font_0_25">
<path d="M .23200003 .365 C .22300002 .365 .199 .374 .162 .39200003 C .124000009 .409 .101 .418 .09200001 .418 C .069000009 .418 .057000005 .40500004 .057000005 .37800003 C .057000005 .356 .072000008 .335 .102000009 .31500004 C .115 .305 .14500001 .28800003 .19300002 .264 C .23200003 .24400002 .256 .22700002 .26700003 .21400002 C .27800004 .201 .28300003 .18200001 .28300003 .157 C .28300003 .11400001 .268 .076000008 .23900002 .046 C .20900002 .015000001 .17200002 0 .12799999 0 C .09900001 0 .072000008 .008 .047 .023000002 C .018 .04 .0030000006 .062000004 .0030000006 .089 C .0030000006 .104 .007999999 .111 .018 .111 C .018 .111 .026 .102000009 .042000005 .08400001 C .057000005 .065000008 .076000008 .056 .09900001 .056 C .115 .056 .12900001 .061 .141 .072000008 C .153 .083000008 .15900001 .096 .15900001 .112 C .15900001 .133 .14500001 .155 .11800001 .177 C .07300001 .21200001 .048 .23300001 .041 .24000001 C .013999999 .272 0 .31 0 .354 C 0 .386 .007999999 .41500003 .024 .439 C .043 .467 .067 .48100005 .098000008 .48100005 L .13800001 .48100005 C .14900002 .48100005 .167 .48000003 .19100002 .47800002 C .21400002 .476 .23200003 .47500003 .24400002 .47500003 C .25900004 .47500003 .27100004 .47700004 .28100003 .48100005 C .286 .48100005 .28800003 .476 .28800003 .467 C .28800003 .46 .28300003 .44500003 .272 .42400003 C .25900004 .39900003 .25200004 .384 .25100003 .379 C .24800003 .37 .24100003 .365 .23200003 .365 Z "/>
</symbol>
<symbol id="font_0_26">
<path d="M .263 .467 C .266 .467 .27800004 .47000004 .29900003 .476 C .312 .472 .326 .45900003 .33900003 .43600003 C .35200004 .41300003 .358 .393 .358 .377 C .358 .349 .34800003 .323 .32900004 .3 C .31800003 .287 .296 .269 .26500003 .245 C .27100004 .21000001 .284 .17300001 .30400003 .134 C .32500003 .09300001 .349 .061 .374 .04 C .38700003 .029000001 .393 .021000002 .393 .015000001 C .393 .0050000005 .388 0 .37800003 0 C .37300004 0 .35400004 0 .319 0 C .296 .0010000002 .277 .0010000002 .261 0 L .25300003 .0030000003 C .231 .035 .21500002 .065000008 .20600002 .094000007 C .20500002 .09700001 .19600001 .12900001 .18100001 .191 C .178 .20400001 .171 .21100001 .16000001 .21100001 C .14500001 .21100001 .13700001 .191 .13700001 .152 C .13700001 .12100001 .14000002 .098000008 .14600002 .08100001 C .15200001 .063 .165 .043 .186 .021000002 L .18900001 .012 C .18900001 .004 .18400002 0 .17300001 0 C .16600001 0 .15500002 .0010000002 .14000002 .0030000003 C .12500002 .0060000007 .113000009 .007 .106000009 .007 C .09700001 .007 .08400001 .0060000007 .06600001 .0030000003 C .048 .0010000002 .034 0 .025 0 C .008000001 0 0 .004 0 .013 C 0 .013 .0010000002 .016 .0020000004 .021000002 C .0090000019 .031000002 .016 .04 .023 .05 C .030000003 .059 .034 .072000008 .035000005 .086 C .041 .142 .044 .215 .044 .307 L .044 .54300007 C .044 .555 .039000006 .56700006 .030000003 .578 C .020000002 .58900007 .015000001 .597 .015000001 .6 C .015000001 .60700008 .026000003 .61300006 .047000007 .61800006 C .055000009 .62 .07800001 .628 .11700001 .642 C .15300001 .656 .17300001 .66300007 .17700002 .66300007 C .18400002 .66300007 .187 .65900006 .187 .652 C .187 .647 .18300002 .64000007 .17400001 .63 C .15900001 .61300006 .149 .58500006 .143 .546 C .13700001 .507 .134 .44900004 .134 .37 C .134 .34100003 .136 .32000003 .14000002 .307 C .148 .284 .16200002 .272 .18500002 .272 C .20300001 .272 .21900001 .278 .23000002 .291 C .24200002 .303 .24800003 .31800003 .24800003 .337 C .24800003 .359 .24200002 .379 .22900002 .397 C .216 .41500003 .19900002 .42700003 .178 .43300004 C .165 .437 .15900001 .441 .15900001 .446 C .15900001 .462 .17700002 .47000004 .21400002 .47000004 C .22200002 .47000004 .23200001 .47000004 .24400002 .469 C .256 .46800003 .26200003 .467 .263 .467 Z "/>
</symbol>
<symbol id="font_0_27">
<path d="M .197 .109000008 C .204 .109000008 .20700002 .101 .20700002 .08400001 C .20700002 .059 .20000002 .038000004 .187 .023000002 C .174 .008 .155 0 .13 0 C .087000008 0 .053000004 .021000002 .030000002 .062000004 C .010000002 .096 0 .13700001 0 .18300002 C 0 .24800001 .018000003 .312 .054000006 .374 C .095000009 .44500003 .146 .48100005 .206 .48100005 C .21600002 .48100005 .231 .48000003 .25100003 .47700004 C .27 .474 .28500004 .47200004 .29500003 .47200004 C .30200003 .47200004 .31200005 .474 .32500003 .47700004 C .33800004 .48000003 .34700004 .48100005 .35400004 .48100005 C .36600004 .48100005 .37200005 .47700004 .37200005 .46800003 C .37200005 .46400003 .36900003 .45400004 .36300005 .437 C .35600005 .418 .35200004 .40600003 .351 .4 C .344 .36 .34100003 .279 .34100003 .156 C .34100003 .1 .34900005 .060000004 .36600004 .038000004 C .37300004 .028 .37700004 .022 .37700004 .019000002 C .37700004 .01 .37100003 .006 .36 .006 C .35200004 .006 .34000004 .007 .32400004 .009000001 C .30800004 .01 .29600004 .011 .28800003 .011 C .28100003 .011 .272 .01 .26000003 .009000001 C .24700001 .007 .238 .006 .23200003 .006 C .224 .006 .22 .009000001 .22 .014 C .22 .017 .224 .025000003 .231 .039 C .238 .053000004 .24300003 .079 .24600002 .115 C .24900002 .15200001 .25000004 .21700001 .25000004 .30900003 C .25000004 .39200003 .23300001 .43400003 .20000002 .43400003 C .169 .43400003 .144 .404 .127 .344 C .114 .3 .108 .256 .108 .21300002 C .108 .141 .12800002 .104 .16800002 .104 C .171 .104 .176 .105000007 .183 .107 C .19 .108 .194 .109000008 .197 .109000008 Z "/>
</symbol>
<use xlink:href="#font_0_24" transform="matrix(26.27279,0,0,-25.826,22.768876,268.2413)" fill="#1a3077"/>
<use xlink:href="#font_0_25" transform="matrix(26.27279,0,0,-25.826,34.01024,268.2413)" fill="#1a3077"/>
<use xlink:href="#font_0_1a" transform="matrix(26.27279,0,0,-25.826,42.732805,268.06053)" fill="#1a3077"/>
<use xlink:href="#font_0_1a" transform="matrix(26.27279,0,0,-25.826,48.460275,268.06053)" fill="#1a3077"/>
<use xlink:href="#font_0_c" transform="matrix(26.27279,0,0,-25.826,50.826009,268.2413)" fill="#1a3077"/>
<use xlink:href="#font_0_17" transform="matrix(26.27279,0,0,-25.826,65.614429,272.45094)" fill="#1a3077"/>
<use xlink:href="#font_0_18" transform="matrix(26.27279,0,0,-25.826,78.0118,272.45094)" fill="#1a3077"/>
<use xlink:href="#font_0_16" transform="matrix(26.27279,0,0,-25.826,89.77832,268.2413)" fill="#1a3077"/>
<use xlink:href="#font_0_21" transform="matrix(26.27279,0,0,-25.826,101.256038,268.2413)" fill="#1a3077"/>
<use xlink:href="#font_0_16" transform="matrix(26.27279,0,0,-25.826,109.18698,268.2413)" fill="#1a3077"/>
<use xlink:href="#font_0_15" transform="matrix(26.27279,0,0,-25.826,120.69097,268.2413)" fill="#1a3077"/>
<use xlink:href="#font_0_19" transform="matrix(26.27279,0,0,-25.826,138.10643,268.18965)" fill="#1a3077"/>
<use xlink:href="#font_0_1a" transform="matrix(26.27279,0,0,-25.826,143.91272,268.06053)" fill="#1a3077"/>
<use xlink:href="#font_0_1a" transform="matrix(26.27279,0,0,-25.826,149.64019,268.06053)" fill="#1a3077"/>
<use xlink:href="#font_0_3" transform="matrix(26.27279,0,0,-25.826,152.13681,268.2413)" fill="#1a3077"/>
<use xlink:href="#font_0_26" transform="matrix(26.27279,0,0,-25.826,166.71454,268.18965)" fill="#1a3077"/>
<use xlink:href="#font_0_21" transform="matrix(26.27279,0,0,-25.826,178.92761,268.2413)" fill="#1a3077"/>
<use xlink:href="#font_0_27" transform="matrix(26.27279,0,0,-25.826,186.93798,268.2413)" fill="#1a3077"/>
<use xlink:href="#font_0_21" transform="matrix(26.27279,0,0,-25.826,199.36202,268.2413)" fill="#1a3077"/>
<use xlink:href="#font_0_22" transform="matrix(26.27279,0,0,-25.826,207.37238,268.3446)" fill="#1a3077"/>
<use xlink:href="#font_0_26" transform="matrix(26.27279,0,0,-25.826,218.32512,268.18965)" fill="#1a3077"/>
<use xlink:href="#font_0_22" transform="matrix(26.27279,0,0,-25.826,230.59093,268.3446)" fill="#1a3077"/>
<use xlink:href="#font_0_14" transform="matrix(26.27279,0,0,-25.826,241.43859,268.18965)" fill="#1a3077"/>
<use xlink:href="#font_0_23" transform="matrix(26.27279,0,0,-25.826,251.34064,268.2413)" fill="#1a3077"/>
<use xlink:href="#font_0_13" transform="matrix(26.27279,0,0,-25.826,263.8955,268.2413)" fill="#1a3077"/>
<use xlink:href="#font_0_1d" transform="matrix(26.27279,0,0,-25.826,275.97789,268.2413)" fill="#1a3077"/>
</g>
</g>
</svg>
